<?xml version="1.0" standalone="no"?>
<!DOCTYPE svg PUBLIC "-//W3C//DTD SVG 20010904//EN"
 "http://www.w3.org/TR/2001/REC-SVG-20010904/DTD/svg10.dtd">
<svg version="1.0" xmlns="http://www.w3.org/2000/svg"
 width="512.000000pt" height="512.000000pt" viewBox="0 0 512.000000 512.000000"
 preserveAspectRatio="xMidYMid meet">
<metadata>
Created by potrace 1.11, written by Peter Selinger 2001-2013
</metadata>
<g transform="translate(0.000000,512.000000) scale(0.100000,-0.100000)"
fill="#000000" stroke="none">
<path d="M0 2560 l0 -2560 2560 0 2560 0 0 2560 0 2560 -2560 0 -2560 0 0
-2560z m1836 -242 c-4 6 -2 12 3 12 6 0 11 -5 11 -12 0 -9 3 -9 12 0 7 7 17
12 23 12 5 0 3 -5 -5 -10 -13 -8 -12 -10 3 -10 9 0 17 6 17 13 0 9 2 9 8 0 5
-8 13 -9 22 -3 9 5 19 5 27 -2 9 -7 13 -7 13 2 0 9 4 9 17 -1 11 -10 14 -10 9
-1 -4 6 -2 12 3 12 6 0 11 -5 11 -12 0 -9 3 -9 12 0 7 7 17 12 23 12 5 0 3 -5
-5 -10 -13 -8 -12 -10 3 -10 9 0 17 6 17 13 0 9 2 9 8 0 5 -8 13 -9 22 -3 9 5
19 5 27 -2 9 -7 13 -7 13 2 0 9 4 9 17 -1 11 -10 14 -10 9 -1 -4 6 -2 12 3 12
6 0 11 -5 11 -12 0 -9 3 -9 12 0 7 7 17 12 23 12 5 0 3 -5 -5 -10 -13 -8 -12
-10 3 -10 9 0 17 6 17 13 0 9 2 9 8 0 5 -8 13 -9 22 -3 9 5 19 5 27 -2 9 -7
13 -7 13 2 0 9 4 9 17 -1 11 -10 14 -10 9 -1 -4 6 -3 12 2 12 20 0 22 -37 22
-323 0 -161 3 -404 7 -541 l6 -249 81 5 c45 3 99 13 121 22 153 64 205 272
205 813 0 133 3 249 6 257 5 14 9 14 22 4 12 -10 14 -10 8 0 -4 6 -2 12 3 12
6 0 11 -5 11 -12 0 -9 3 -9 12 0 7 7 17 12 23 12 5 0 3 -5 -5 -10 -13 -8 -12
-10 3 -10 9 0 17 6 17 13 0 9 2 9 8 0 5 -8 13 -9 22 -3 9 5 19 5 27 -2 9 -7
13 -7 13 2 0 9 4 9 17 -1 11 -10 14 -10 9 -1 -4 6 -2 12 3 12 6 0 11 -5 11
-12 0 -9 3 -9 12 0 7 7 17 12 23 12 5 0 3 -5 -5 -10 -13 -8 -12 -10 3 -10 9 0
17 6 17 13 0 9 2 9 8 0 5 -8 13 -9 22 -3 9 5 19 5 27 -2 9 -7 13 -7 13 2 0 9
4 9 17 -1 11 -10 14 -10 9 -1 -4 6 -2 12 3 12 6 0 11 -5 11 -12 0 -9 3 -9 12
0 7 7 17 12 23 12 5 0 3 -5 -5 -10 -13 -8 -12 -10 3 -10 9 0 17 6 17 13 0 9 2
9 8 0 5 -8 13 -9 22 -3 9 5 19 5 27 -2 9 -7 13 -7 13 2 0 9 4 9 17 -1 11 -10
14 -10 9 -1 -4 6 -2 12 3 12 6 0 11 -5 11 -12 0 -9 3 -9 12 0 7 7 17 12 23 12
5 0 3 -5 -5 -10 -10 -6 -11 -10 -2 -10 15 0 16 -239 2 -485 -38 -639 -148
-908 -430 -1050 -169 -85 -306 -106 -752 -112 l-348 -5 0 831 c0 552 3 830 10
826 6 -3 10 -1 10 6 0 8 5 7 17 -2 11 -10 14 -10 9 -1z"/>
</g>
</svg>
