<svg xmlns="http://www.w3.org/2000/svg" width="63" height="66" viewBox="0, 0, 63, 66"><path d="M21.318 28.267h-8.235a.75.75 0 0 0 0 1.5h8.235a.75.75 0 0 0 0-1.5m8.07 21.389H8.656a.75.75 0 0 0 0 1.5h20.732a.75.75 0 0 0 0-1.5m-4.593 4H8.655a.75.75 0 0 0 0 1.5h16.14a.75.75 0 0 0 0-1.5M13.083 14.368h9.184a.75.75 0 0 0 0-1.5h-9.184a.75.75 0 0 0 0 1.5m12.91 0h4.953a.75.75 0 0 0 0-1.5h-4.953a.75.75 0 0 0 0 1.5m7.956-.219a.748.748 0 0 0 1.28-.529c0-.2-.08-.391-.219-.531a.657.657 0 0 0-.241-.16.753.753 0 0 0-.82.16.752.752 0 0 0-.22.531.67.67 0 0 0 .061.279c.029.101.09.181.159.25m3.809 16.341a5.68 5.68 0 0 1-5.673-5.673 5.68 5.68 0 0 1 5.673-5.673 5.679 5.679 0 0 1 5.672 5.673 5.679 5.679 0 0 1-5.672 5.673m0-12.846c-3.955 0-7.173 3.218-7.173 7.173s3.218 7.173 7.173 7.173c3.954 0 7.172-3.218 7.172-7.173s-3.218-7.173-7.172-7.173"/><path d="M59.459 26.469h-6.573v-3.305h6.573c.911 0 1.652.742 1.652 1.653s-.741 1.652-1.652 1.652zM47.98 25.445c.013-.209.034-.416.034-.628 0-.212-.021-.419-.034-.628h3.406v1.256H47.98zm-10.222 8.127c-4.827 0-8.755-3.928-8.755-8.755 0-4.828 3.928-8.756 8.755-8.756 4.827 0 8.756 3.928 8.756 8.756 0 4.827-3.929 8.755-8.756 8.755zm4.471 3.123H17.528a.75.75 0 0 0-.75.75 5.246 5.246 0 0 1-5.24 5.24c-.008 0-.017.005-.024.005-.009 0-.017-.005-.026-.005-2.861 0-5.189-2.333-5.189-5.2v-16.17a.756.756 0 0 0-.05-.241.733.733 0 0 0 .05-.239V5.125l35.93.01v10.466a10.187 10.187 0 0 0-10.94 1.266H13.083a.75.75 0 1 0 0 1.5h16.712a10.26 10.26 0 0 0-1.215 1.9H13.083a.75.75 0 1 0 0 1.5h14.882a10.218 10.218 0 0 0-.434 2.5H13.083a.75.75 0 1 0 0 1.5h14.468c.48 5.21 4.873 9.305 10.207 9.305 1.603 0 3.117-.381 4.471-1.041v2.664zm12.176 1.536c-.362 2.515-2.528 4.454-5.136 4.454H15.773a6.74 6.74 0 0 0 2.463-4.49h29.488l6.681.036zM37.549 60.875H1.888V9.505h2.911v11.33c0 .085.021.163.048.239a.728.728 0 0 0-.048.241v16.17c0 3.694 3 6.7 6.739 6.7h26.011v16.69zm21.91-39.211h-7.323a.75.75 0 0 0-.75.75v.275h-3.597a10.28 10.28 0 0 0-4.06-6.195V4.385a.75.75 0 0 0-.75-.75l-37.43-.01a.75.75 0 0 0-.75.75v3.63H1.138a.75.75 0 0 0-.749.75v52.87c0 .414.336.75.749.75h37.161a.75.75 0 0 0 .75-.75v-17.44h10.22c3.689 0 6.689-3.006 6.689-6.7a.75.75 0 0 0-.745-.75l-7.484-.04h-4v-3.557a10.264 10.264 0 0 0 4.058-6.193h3.599v.274c0 .414.336.75.75.75h7.323a3.156 3.156 0 0 0 3.152-3.152 3.156 3.156 0 0 0-3.152-3.153z"/><path d="M34.75 24.817c0-.383.07-.757.212-1.111a.752.752 0 0 0-.42-.975.752.752 0 0 0-.974.42 4.481 4.481 0 0 0-.318 1.666c0 .977.307 1.905.889 2.687a.744.744 0 0 0 1.048.154.747.747 0 0 0 .154-1.049 2.984 2.984 0 0 1-.591-1.792"/></svg>