<svg xmlns="http://www.w3.org/2000/svg" viewBox="0 0 83.2 78.2">
  <title>Resurs 1</title>
  <path d="M72.8,77.2V68.5a11.9,11.9,0,0,0,2.7-2.8l6.4-13.1a2.4,2.4,0,0,0-.8-3.3,2.3,2.3,0,0,0-3.3.8l-2.3,4.5A7.6,7.6,0,0,0,68,57.3m7.6-3.2V39.7A2.5,2.5,0,0,0,74,37.3a2.6,2.6,0,0,0-3.4,2.2V36.8A2.4,2.4,0,0,0,69,34.4M65.7,51.2V40.9M56.3,59v1.6a11.8,11.8,0,0,0,1.4,5.5,7.6,7.6,0,0,0,1.9,2.1h0v8.9M33.7,68.4v8.8m-10.4,0V65.4s2.8-2.1,3.6-3.7l1-2.1m-4-13.1a10.9,10.9,0,0,0-7.2,3.8M5.5,77.2v-12H5.4a9.9,9.9,0,0,1-2.5-2.9A14.8,14.8,0,0,1,1,54.8V30.2a3.1,3.1,0,0,1,2.8-3.1,2.9,2.9,0,0,1,3.1,2.8V25.3a3.3,3.3,0,0,1,2.2-3.2A3.3,3.3,0,0,1,13.6,25V22.6a3.4,3.4,0,0,1,4.5-3.2,3.5,3.5,0,0,1,2.2,3.2v3.6a3.3,3.3,0,0,1,3.6-3m29.3,54V61.7S57,58.9,58,56.8L69.3,33.4a4.2,4.2,0,0,0-1.5-5.8A4.2,4.2,0,0,0,62,29l-4,8s-7.2-2.1-13.4,4.8m13.5-5.7V10.5a4.3,4.3,0,0,0-2.9-4.1,4.4,4.4,0,0,0-5.9,3.8V5.4a4.4,4.4,0,0,0-2.9-4.2,4.5,4.5,0,0,0-5.9,4.2V8.5a4.4,4.4,0,0,0-5.9-3.8,4.3,4.3,0,0,0-2.9,4.2v6a3.9,3.9,0,0,0-4.2-3.6,4,4,0,0,0-3.6,4.1V47.7a20.3,20.3,0,0,0,2.5,9.7,12.3,12.3,0,0,0,3.3,3.9h.1V77.2" style="fill: none;stroke: #fff;stroke-linecap: round;stroke-linejoin: round;stroke-width: 2px"/>
</svg>
