<?xml version="1.0" encoding="UTF-8"?>
<svg width="60px" height="66px" viewBox="0 0 60 66" version="1.1" xmlns="http://www.w3.org/2000/svg" xmlns:xlink="http://www.w3.org/1999/xlink">
    <!-- Generator: Sketch 50 (54983) - http://www.bohemiancoding.com/sketch -->
    <title>Group</title>
    <desc>Created with Sketch.</desc>
    <defs></defs>
    <g id="Page-1" stroke="none" stroke-width="1" fill="none" fill-rule="evenodd">
        <g id="DS_metod_sida" transform="translate(-313.000000, -636.000000)" fill="#000000">
            <g id="Group" transform="translate(313.464342, 636.000000)">
                <path d="M30.0919,33.6856 C30.0229,33.7816 29.9479,33.8726 29.8669,33.9616 C28.7399,35.2156 26.8059,35.2186 25.6729,33.9586 C25.5949,33.8726 25.5209,33.7816 25.4499,33.6846 C24.9089,32.9356 24.7179,31.8426 24.9399,30.7616 L27.7719,16.9796 L30.6039,30.7606 C30.8249,31.8426 30.6339,32.9356 30.0919,33.6856 Z M29.0909,15.9486 C28.9609,15.3156 28.4179,14.8736 27.7719,14.8736 C27.1249,14.8736 26.5819,15.3156 26.4519,15.9486 L23.4709,30.4596 C23.1609,31.9676 23.4399,33.4636 24.2349,34.5626 C24.3369,34.7056 24.4459,34.8396 24.5609,34.9656 C25.4129,35.9126 26.5529,36.4336 27.7719,36.4336 C28.9899,36.4336 30.1299,35.9126 30.9799,34.9686 C31.0969,34.8396 31.2059,34.7056 31.3079,34.5636 C32.1039,33.4636 32.3819,31.9676 32.0719,30.4586 L29.0909,15.9486 Z" id="Fill-1"></path>
                <path d="M23.9913,44.9756 C20.5093,44.2246 17.3543,42.2736 15.1083,39.4836 C14.8643,39.1826 14.4263,39.1356 14.1273,39.3766 C13.8263,39.6196 13.7793,40.0586 14.0203,40.3586 C16.4673,43.3966 19.9033,45.5216 23.6963,46.3396 C23.7463,46.3506 23.7963,46.3566 23.8453,46.3566 C24.1663,46.3566 24.4553,46.1326 24.5263,45.8056 C24.6073,45.4286 24.3683,45.0576 23.9913,44.9756" id="Fill-3"></path>
                <path d="M38.9425,46.2559 C35.5815,48.6549 31.6145,49.9229 27.4705,49.9229 C18.8625,49.9229 11.1515,44.2229 8.6025,36.0299 C9.0325,35.3269 9.2735,34.5239 9.2795,33.6729 C9.2895,32.2169 8.6335,30.8689 7.4805,29.9769 C7.3725,29.8919 7.2515,29.8249 7.1345,29.7509 C7.2705,29.6629 7.4105,29.5819 7.5375,29.4799 C8.6445,28.5969 9.2795,27.2749 9.2795,25.8529 C9.2795,25.0449 9.0725,24.2569 8.6815,23.5719 C8.6045,23.4349 8.5075,23.3099 8.4165,23.1809 C8.5425,23.1559 8.6685,23.1379 8.7925,23.1039 C10.7935,22.5429 12.1895,20.7039 12.1895,18.6319 C12.1895,18.3429 12.1525,18.0429 12.0925,17.7389 C12.1345,17.6879 12.1745,17.6359 12.2175,17.5839 C15.9915,13.0129 21.5505,10.3909 27.4705,10.3909 C38.3705,10.3909 47.2365,19.2579 47.2365,30.1569 C47.2365,36.5299 44.1355,42.5479 38.9425,46.2559 Z M6.7355,35.9779 C6.1615,36.4969 5.4185,36.7819 4.6395,36.7819 L4.6185,36.7819 C3.7795,36.7769 2.9935,36.4439 2.4045,35.8479 C1.8155,35.2509 1.4945,34.4609 1.5005,33.6209 C1.5045,32.7809 1.8375,31.9949 2.4335,31.4059 C3.0255,30.8219 3.8075,30.5019 4.6385,30.5019 L4.6615,30.5019 C5.3575,30.5069 6.0135,30.7349 6.5585,31.1589 C6.5595,31.1599 6.5605,31.1609 6.5615,31.1609 C7.3425,31.7659 7.7865,32.6779 7.7795,33.6619 C7.7745,34.3149 7.5785,34.9289 7.2095,35.4429 C7.1705,35.4989 7.1295,35.5529 7.0795,35.6119 C6.9735,35.7429 6.8595,35.8649 6.7355,35.9779 Z M4.6395,22.7119 C5.0155,22.7119 5.3745,22.7769 5.7585,22.9189 C5.7795,22.9269 5.8005,22.9359 5.8035,22.9369 C5.8475,22.9539 5.8865,22.9689 5.9105,22.9769 C6.5265,23.2519 7.0465,23.7239 7.3755,24.3099 L7.3785,24.3159 C7.6405,24.7739 7.7795,25.3049 7.7795,25.8529 C7.7795,26.8159 7.3505,27.7099 6.5985,28.3089 C6.0445,28.7559 5.3665,28.9919 4.6395,28.9919 C2.9085,28.9919 1.5005,27.5839 1.5005,25.8529 C1.5005,24.1209 2.9085,22.7119 4.6395,22.7119 Z M7.5495,15.4919 C8.9335,15.4919 10.1705,16.4149 10.5575,17.7379 L10.5965,17.8829 C10.6585,18.1399 10.6895,18.3919 10.6895,18.6319 C10.6895,20.0339 9.7435,21.2789 8.3905,21.6589 C7.7475,21.8359 7.0895,21.8139 6.4235,21.5679 C6.4195,21.5649 6.4155,21.5619 6.4105,21.5599 C6.3635,21.5419 6.3235,21.5269 6.2935,21.5159 C5.1425,21.0029 4.3995,19.8739 4.3995,18.6319 C4.3995,16.9009 5.8125,15.4919 7.5495,15.4919 Z M3.7805,2.4019 C4.9855,1.1969 6.9445,1.1969 8.1495,2.4019 L17.3445,11.5979 C15.5265,12.5909 13.8535,13.8599 12.3775,15.3679 L3.7805,6.7719 C2.5765,5.5669 2.5765,3.6079 3.7805,2.4019 Z M25.4015,5.8239 L30.1415,5.8239 L30.1415,9.2049 C29.2645,9.0939 28.3775,9.0179 27.4705,9.0179 C26.7755,9.0179 26.0865,9.0579 25.4015,9.1239 L25.4015,5.8239 Z M22.5125,1.8279 L33.0305,1.8279 L33.0305,4.3239 L24.6755,4.3239 C24.6675,4.3239 24.6605,4.3189 24.6515,4.3189 C24.6425,4.3189 24.6355,4.3239 24.6275,4.3239 L22.5125,4.3239 L22.5125,1.8279 Z M43.2895,7.3329 L46.3185,10.3619 L41.9185,14.7629 C41.9175,14.7639 41.9175,14.7649 41.9165,14.7669 C40.8645,13.7779 39.7135,12.9019 38.4775,12.1449 L43.2895,7.3329 Z M56.4035,19.9759 C54.2495,18.6809 51.4405,19.3799 50.1205,21.5829 L48.0965,25.5829 C47.2735,21.8679 45.4655,18.5289 42.9685,15.8299 C42.9715,15.8269 42.9755,15.8259 42.9785,15.8229 L47.9095,10.8929 C48.2025,10.5999 48.2025,10.1249 47.9095,9.8319 L43.8195,5.7419 C43.5265,5.4489 43.0515,5.4489 42.7585,5.7419 L37.1385,11.3619 C37.1345,11.3659 37.1335,11.3719 37.1305,11.3759 C35.4095,10.4869 33.5585,9.8179 31.6055,9.4299 C31.6205,9.3699 31.6415,9.3129 31.6415,9.2479 L31.6415,5.8239 L33.7805,5.8239 C34.1945,5.8239 34.5305,5.4879 34.5305,5.0739 L34.5305,1.0779 C34.5305,0.6639 34.1945,0.3279 33.7805,0.3279 L21.7625,0.3279 C21.3485,0.3279 21.0125,0.6639 21.0125,1.0779 L21.0125,5.0739 C21.0125,5.4879 21.3485,5.8239 21.7625,5.8239 L23.9015,5.8239 L23.9015,9.3199 C22.1145,9.6239 20.3865,10.1599 18.7525,10.9009 C18.7395,10.8849 18.7345,10.8659 18.7195,10.8519 L9.2105,1.3419 C7.4215,-0.4471 4.5085,-0.4471 2.7195,1.3419 C0.9305,3.1309 0.9305,6.0429 2.7195,7.8319 L9.1975,14.3099 C8.6785,14.1099 8.1255,13.9919 7.5495,13.9919 C4.9855,13.9919 2.8995,16.0729 2.8995,18.6319 C2.8995,19.6089 3.2145,20.5319 3.7585,21.3009 C1.6215,21.7139 0.0005,23.5959 0.0005,25.8529 C0.0005,27.4849 0.8505,28.9149 2.1285,29.7429 C1.8625,29.9139 1.6105,30.1099 1.3795,30.3379 C0.4985,31.2089 0.0075,32.3709 0.0005,33.6109 C-0.0085,34.8509 0.4655,36.0199 1.3365,36.9019 C2.2065,37.7829 3.3685,38.2739 4.6085,38.2819 L4.6395,38.2819 C5.7145,38.2819 6.7365,37.9009 7.5605,37.2259 C8.2455,39.1499 9.1945,40.9359 10.3675,42.5429 C10.3675,42.6029 10.3595,42.6609 10.3745,42.7219 C10.7205,44.1469 11.4515,45.9669 12.3295,47.5899 C13.0435,48.9129 14.0325,50.0989 15.2725,51.1179 L15.2725,64.8389 C15.2725,65.2529 15.6085,65.5889 16.0225,65.5889 C16.4365,65.5889 16.7725,65.2529 16.7725,64.8389 L16.7725,50.7589 C16.7725,50.5299 16.6685,50.3139 16.4885,50.1709 L16.3935,50.0959 C15.2245,49.1699 14.3015,48.0869 13.6495,46.8769 C13.4025,46.4189 13.1735,45.9469 12.9595,45.4739 C16.8055,49.1029 21.9635,51.2959 27.4705,51.2959 C31.9015,51.2959 36.1445,49.9399 39.7395,47.3729 C45.2935,43.4079 48.6095,36.9729 48.6095,30.1569 C48.6095,29.4579 48.5715,28.7679 48.5045,28.0849 C48.5095,28.0749 48.5205,28.0689 48.5255,28.0589 L51.4315,22.3089 C52.2995,20.8609 54.1875,20.3939 55.6305,21.2609 C57.0775,22.1299 57.5465,24.0139 56.6455,25.5199 L46.5475,46.3229 C45.8605,47.7629 43.4115,49.7819 42.5255,50.4399 C42.3345,50.5809 42.2215,50.8049 42.2215,51.0419 L42.2215,64.8389 C42.2215,65.2529 42.5575,65.5889 42.9715,65.5889 C43.3855,65.5889 43.7215,65.2529 43.7215,64.8389 L43.7215,51.4129 C44.5945,50.7329 47.0745,48.7019 47.8995,46.9739 L57.9635,26.2339 C59.2585,24.0779 58.5585,21.2709 56.4035,19.9759 Z" id="Fill-5"></path>
                <path d="M19.3673,55.9639 C18.9533,55.9639 18.6173,56.2999 18.6173,56.7139 L18.6173,64.5559 C18.6173,64.9699 18.9533,65.3059 19.3673,65.3059 C19.7813,65.3059 20.1173,64.9699 20.1173,64.5559 L20.1173,56.7139 C20.1173,56.2999 19.7813,55.9639 19.3673,55.9639" id="Fill-7"></path>
                <path d="M19.8995,53.1358 C19.6195,52.8558 19.1195,52.8558 18.8395,53.1358 C18.7695,53.2048 18.7105,53.2848 18.6705,53.3748 C18.6395,53.4658 18.6095,53.5658 18.6095,53.6648 C18.6095,53.8648 18.6895,54.0448 18.8395,54.1958 C18.9095,54.2658 18.9895,54.3158 19.0795,54.3558 C19.1705,54.3958 19.2695,54.4148 19.3695,54.4148 C19.5695,54.4148 19.7505,54.3348 19.8995,54.1958 C20.0405,54.0558 20.1195,53.8648 20.1195,53.6648 C20.1195,53.5658 20.0995,53.4658 20.0595,53.3748 C20.0195,53.2848 19.9695,53.2048 19.8995,53.1358" id="Fill-9"></path>
                <path d="M28.3097,30.585 C28.0297,30.306 27.5297,30.306 27.2497,30.585 C27.1797,30.655 27.1197,30.735 27.0797,30.835 C27.0497,30.926 27.0297,31.016 27.0297,31.115 C27.0297,31.216 27.0497,31.315 27.0797,31.405 C27.1197,31.495 27.1797,31.575 27.2497,31.646 C27.3897,31.785 27.5797,31.865 27.7797,31.865 C27.9797,31.865 28.1597,31.785 28.3097,31.646 C28.3797,31.575 28.4297,31.495 28.4697,31.405 C28.5097,31.315 28.5297,31.216 28.5297,31.115 C28.5297,31.016 28.5097,30.926 28.4697,30.835 C28.4297,30.735 28.3797,30.655 28.3097,30.585" id="Fill-11"></path>
            </g>
        </g>
    </g>
</svg>