<svg height="66" viewBox="0 0 60 66" width="60" xmlns="http://www.w3.org/2000/svg"><path d="m31.556 33.686c-.069.096-.144.187-.225.276-1.127 1.254-3.061 1.257-4.194-.003-.078-.086-.152-.177-.223-.274-.541-.749-.732-1.842-.51-2.923l2.832-13.782 2.832 13.781c.221 1.082.03 2.175-.512 2.925zm-1.001-17.737c-.13-.633-.673-1.075-1.319-1.075-.647 0-1.19.442-1.32 1.075l-2.981 14.511c-.31 1.508-.031 3.004.764 4.103.102.143.211.277.326.403.852.947 1.992 1.468 3.211 1.468 1.218 0 2.358-.521 3.208-1.465.117-.129.226-.263.328-.405.796-1.1 1.074-2.596.764-4.105z"/><path d="m25.456 44.976c-3.482-.751-6.637-2.702-8.883-5.492-.244-.301-.682-.348-.981-.107-.301.243-.348.682-.107.982 2.447 3.038 5.883 5.163 9.676 5.981.05.011.1.017.149.017.321 0 .61-.224.681-.551.081-.377-.158-.748-.535-.83"/><path d="m40.407 46.256c-3.361 2.399-7.328 3.667-11.472 3.667-8.608 0-16.319-5.7-18.868-13.893.43-.703.671-1.506.677-2.357.01-1.456-.646-2.804-1.799-3.696-.108-.085-.229-.152-.346-.226.136-.088.276-.169.403-.271 1.107-.883 1.742-2.205 1.742-3.627 0-.808-.207-1.596-.598-2.281-.077-.137-.174-.262-.265-.391.126-.025.252-.043.376-.077 2.001-.561 3.397-2.4 3.397-4.472 0-.289-.037-.589-.097-.893.042-.051.082-.103.125-.155 3.774-4.571 9.333-7.193 15.253-7.193 10.9 0 19.766 8.867 19.766 19.766 0 6.373-3.101 12.391-8.294 16.099zm-32.207-10.278c-.574.519-1.317.804-2.096.804h-.021c-.839-.005-1.625-.338-2.214-.934-.589-.597-.91-1.387-.904-2.227.004-.84.337-1.626.933-2.215.592-.584 1.374-.904 2.205-.904h.023c.696.005 1.352.233 1.897.657.001.001.002.002.003.002.781.605 1.225 1.517 1.218 2.501-.005.653-.201 1.267-.57 1.781-.039.056-.08.11-.13.169-.106.131-.22.253-.344.366zm-2.096-13.266c.376 0 .735.065 1.119.207.021.008.042.017.045.018.044.017.083.032.107.04.616.275 1.136.747 1.465 1.333l.003.006c.262.458.401.989.401 1.537 0 .963-.429 1.857-1.181 2.456-.554.447-1.232.683-1.959.683-1.731 0-3.139-1.408-3.139-3.139 0-1.732 1.408-3.141 3.139-3.141zm2.91-7.22c1.384 0 2.621.923 3.008 2.246l.039.145c.062.257.093.509.093.749 0 1.402-.946 2.647-2.299 3.027-.643.177-1.301.155-1.967-.091-.004-.003-.008-.006-.013-.008-.047-.018-.087-.033-.117-.044-1.151-.513-1.894-1.642-1.894-2.884 0-1.731 1.413-3.14 3.15-3.14zm-3.769-13.09c1.205-1.205 3.164-1.205 4.369 0l9.195 9.196c-1.818.993-3.491 2.262-4.967 3.77l-8.597-8.596c-1.204-1.205-1.204-3.164 0-4.37zm21.621 3.422h4.74v3.381c-.877-.111-1.764-.187-2.671-.187-.695 0-1.384.04-2.069.106zm-2.889-3.996h10.518v2.496h-8.355c-.008 0-.015-.005-.024-.005s-.016.005-.024.005h-2.115zm20.777 5.505 3.029 3.029-4.4 4.401c-.001.001-.001.002-.002.004-1.052-.989-2.203-1.865-3.439-2.622zm13.114 12.643c-2.154-1.295-4.963-.596-6.283 1.607l-2.024 4c-.823-3.715-2.631-7.054-5.128-9.753.003-.003.007-.004.01-.007l4.931-4.93c.293-.293.293-.768 0-1.061l-4.09-4.09c-.293-.293-.768-.293-1.061 0l-5.62 5.62c-.004.004-.005.01-.008.014-1.721-.889-3.572-1.558-5.525-1.946.015-.06.036-.117.036-.182v-3.424h2.139c.414 0 .75-.336.75-.75v-3.996c0-.414-.336-.75-.75-.75h-12.018c-.414 0-.75.336-.75.75v3.996c0 .414.336.75.75.75h2.139v3.496c-1.787.304-3.515.84-5.149 1.581-.013-.016-.018-.035-.033-.049l-9.509-9.51c-1.789-1.789-4.702-1.789-6.491 0s-1.789 4.701 0 6.49l6.478 6.478c-.519-.2-1.072-.318-1.648-.318-2.564 0-4.65 2.081-4.65 4.64 0 .977.315 1.9.859 2.669-2.137.413-3.758 2.295-3.758 4.552 0 1.632.85 3.062 2.128 3.89-.266.171-.518.367-.749.595-.881.871-1.372 2.033-1.379 3.273-.009 1.24.465 2.409 1.336 3.291.87.881 2.032 1.372 3.272 1.38h.031c1.075 0 2.097-.381 2.921-1.056.685 1.924 1.634 3.71 2.807 5.317 0 .06-.008.118.007.179.346 1.425 1.077 3.245 1.955 4.868.714 1.323 1.703 2.509 2.943 3.528v13.721c0 .414.336.75.75.75s.75-.336.75-.75v-14.08c0-.229-.104-.445-.284-.588l-.095-.075c-1.169-.926-2.092-2.009-2.744-3.219-.247-.458-.476-.93-.69-1.403 3.846 3.629 9.004 5.822 14.511 5.822 4.431 0 8.674-1.356 12.269-3.923 5.554-3.965 8.87-10.4 8.87-17.216 0-.699-.038-1.389-.105-2.072.005-.01.016-.016.021-.026l2.906-5.75c.868-1.448 2.756-1.915 4.199-1.048 1.447.869 1.916 2.753 1.015 4.259l-10.098 20.803c-.687 1.44-3.136 3.459-4.022 4.117-.191.141-.304.365-.304.602v13.797c0 .414.336.75.75.75s.75-.336.75-.75v-13.426c.873-.68 3.353-2.711 4.178-4.439l10.064-20.74c1.295-2.156.595-4.963-1.56-6.258z"/><path d="m20.832 55.964c-.414 0-.75.336-.75.75v7.842c0 .414.336.75.75.75s.75-.336.75-.75v-7.842c0-.414-.336-.75-.75-.75"/><path d="m21.364 53.136c-.28-.28-.78-.28-1.06 0-.07.069-.129.149-.169.239-.031.091-.061.191-.061.29 0 .2.08.38.23.531.07.07.15.12.24.16.091.04.19.059.29.059.2 0 .381-.08.53-.219.141-.14.22-.331.22-.531 0-.099-.02-.199-.06-.29-.04-.09-.09-.17-.16-.239"/><path d="m29.774 30.585c-.28-.279-.78-.279-1.06 0-.07.07-.13.15-.17.25-.03.091-.05.181-.05.28 0 .101.02.2.05.29.04.09.1.17.17.241.14.139.33.219.53.219s.38-.08.53-.219c.07-.071.12-.151.16-.241s.06-.189.06-.29c0-.099-.02-.189-.06-.28-.04-.1-.09-.18-.16-.25"/></svg>