<svg height="61" viewBox="0 0 60 61" width="60" xmlns="http://www.w3.org/2000/svg" xmlns:xlink="http://www.w3.org/1999/xlink"><mask id="a" fill="#fff"><path d="m0 .486h58.9351788v59.7776112h-58.9351788z" fill="none"/></mask><g fill="#fff" fill-rule="evenodd" transform="translate(.854 -.542069)"><path d="m55.9744668 16.5012552h-44.246412c-1.75446 0-3.400056-.590976-4.63158-1.664064-1.204308-1.048788-1.867212-2.43486-1.867212-3.90258 0-1.466748.662904-2.85282 1.86624-3.900636 1.232496-1.07406 2.878092-1.665036 4.632552-1.665036h44.246412c-1.959552 3.433104-1.959552 7.699212 0 11.132316zm0 19.44h-44.246412c-1.75446 0-3.400056-.590976-4.63158-1.664064-1.204308-1.048788-1.867212-2.43486-1.867212-3.90258 0-1.466748.662904-2.85282 1.86624-3.900636 1.232496-1.07406 2.878092-1.665036 4.632552-1.665036h44.246412c-1.959552 3.433104-1.959552 7.699212 0 11.132316zm0 19.44h-44.246412c-1.75446 0-3.400056-.590976-4.63158-1.664064-1.204308-1.048788-1.867212-2.43486-1.867212-3.90258 0-1.466748.662904-2.85282 1.86624-3.900636 1.232496-1.07406 2.878092-1.665036 4.632552-1.665036h44.246412c-1.959552 3.433104-1.959552 7.699212 0 11.132316zm1.502712 3.424356h-47.028276c-4.958172 0-8.991-4.032828-8.991-8.991 0-4.9572 4.032828-8.991 8.991-8.991h47.028276v1.967328h-45.749124c-2.106324 0-4.091148.718308-5.589 2.023704-1.527012 1.328724-2.367792 3.104568-2.367792 4.999968s.84078 3.672216 2.367792 5.001912c1.497852 1.304424 3.482676 2.022732 5.589 2.022732h45.749124zm-56.019276-28.431c0-4.9572 4.032828-8.991 8.991-8.991h47.028276v1.967328h-45.749124c-2.106324 0-4.091148.718308-5.589 2.023704-1.527012 1.328724-2.367792 3.104568-2.367792 4.999968s.84078 3.672216 2.367792 5.001912c1.497852 1.304424 3.482676 2.022732 5.589 2.022732h45.749124v1.966356h-47.028276c-4.958172 0-8.991-4.032828-8.991-8.991zm0-19.44c0-4.9572 4.032828-8.991 8.991-8.991h47.028276v1.967328h-45.749124c-2.106324 0-4.091148.718308-5.589 2.023704-1.527012 1.328724-2.367792 3.104568-2.367792 4.999968s.84078 3.672216 2.367792 5.001912c1.497852 1.304424 3.482676 2.022732 5.589 2.022732h45.749124v1.966356h-47.028276c-4.958172 0-8.991-4.032828-8.991-8.991zm56.237976-5.565672h.5103c.402408 0 .729-.326592.729-.729v-3.425328c0-.402408-.326592-.729-.729-.729h-47.757276c-5.762016 0-10.449 4.687956-10.449 10.449 0 4.416768 2.758536 8.19396 6.640704 9.72-3.882168 1.527012-6.640704 5.303232-6.640704 9.72s2.758536 8.19396 6.640704 9.72c-3.882168 1.527012-6.640704 5.303232-6.640704 9.72 0 5.762016 4.686984 10.449 10.449 10.449h47.757276c.402408 0 .729-.32562.729-.729v-3.424356c0-.402408-.326592-.729-.729-.729h-.5103c-2.314332-3.3291-2.314332-7.803216 0-11.132316h.5103c.402408 0 .729-.326592.729-.729v-3.425328-3.424356c0-.402408-.326592-.729-.729-.729h-.5103c-2.314332-3.3291-2.314332-7.803216 0-11.132316h.5103c.402408 0 .729-.326592.729-.729v-3.425328-3.424356c0-.402408-.326592-.729-.729-.729h-.5103c-2.314332-3.3291-2.314332-7.803216 0-11.132316z" mask="url(#a)" transform="translate(0 .486)"/><path d="m34.2972144 8.748h-15.127236c-.402408 0-.728028.326592-.728028.729s.32562.729.728028.729h15.127236c.402408 0 .729-.326592.729-.729s-.326592-.729-.729-.729"/><path d="m42.8002704 8.748h-4.615056c-.402408 0-.729.326592-.729.729s.326592.729.729.729h4.615056c.402408 0 .729-.326592.729-.729s-.326592-.729-.729-.729"/><path d="m46.9635408 8.7992244c-.175932-.06804-.380052-.06804-.55404 0-.08748.03888-.17496.0972-.234252.16524-.135108.12636-.212868.32076-.212868.51516 0 .193428.07776.37908.212868.514188.137052.137052.321732.20412.516132.20412s.36936-.067068.50544-.20412c.1458-.135108.22356-.32076.22356-.514188 0-.1944-.07776-.3888-.22356-.51516-.05832-.06804-.1458-.12636-.23328-.16524"/><path d="m24.5496096 12.636h-9.145548c-.402408 0-.729.326592-.729.729s.326592.729.729.729h9.145548c.402408 0 .729-.326592.729-.729s-.326592-.729-.729-.729"/><path d="m33.331824 12.636h-4.89402c-.402408 0-.729.326592-.729.729s.326592.729.729.729h4.89402c.402408 0 .729-.326592.729-.729s-.326592-.729-.729-.729"/><path d="m38.2971888 12.636h-1.076976c-.402408 0-.729.326592-.729.729s.326592.729.729.729h1.076976c.402408 0 .729-.326592.729-.729s-.326592-.729-.729-.729"/><path d="m42.463278 12.6872244c-.175932-.06804-.380052-.06804-.55404 0-.0972.03888-.17496.0972-.234252.16524-.07776.06804-.125388.144828-.164268.23328-.039852.08748-.05832.18468-.05832.28188 0 .193428.07776.37908.222588.514188.069012.069012.146772.117612.234252.156492s.173988.05832.27216.05832c.0972 0 .1944-.01944.28188-.05832s.16524-.08748.232308-.156492c.146772-.135108.214812-.32076.214812-.514188 0-.1944-.07776-.37908-.214812-.51516-.057348-.06804-.144828-.12636-.232308-.16524"/><path d="m19.1704644 29.646h15.127236c.402408 0 .728028-.326592.728028-.729s-.32562-.729-.728028-.729h-15.127236c-.402408 0-.729.326592-.729.729s.326592.729.729.729"/><path d="m38.1852144 29.646h4.615056c.402408 0 .729-.326592.729-.729s-.326592-.729-.729-.729h-4.615056c-.402408 0-.729.326592-.729.729s.326592.729.729.729"/><path d="m46.6910892 29.6488188c.1944 0 .36936-.07776.51516-.214812.13608-.144828.21384-.32076.21384-.514188 0-.098172-.01944-.1944-.05832-.28188-.03888-.088452-.08748-.16524-.15552-.23328-.27216-.273132-.76788-.273132-1.03032 0-.06804.06804-.12636.144828-.16524.23328-.03888.08748-.0486.183708-.0486.28188 0 .193428.06804.36936.21384.514188.13608.137052.32076.214812.51516.214812"/><path d="m33.2254872 32.076h-9.144576c-.402408 0-.729.326592-.729.729s.326592.729.729.729h9.144576c.402408 0 .729-.326592.729-.729s-.326592-.729-.729-.729"/><path d="m15.2976276 33.534h4.894992c.402408 0 .729-.326592.729-.729s-.326592-.729-.729-.729h-4.894992c-.402408 0-.729.326592-.729.729s.326592.729.729.729"/><path d="m37.1134872 33.534h1.077948c.402408 0 .729-.326592.729-.729s-.326592-.729-.729-.729h-1.077948c-.402408 0-.729.326592-.729.729s.326592.729.729.729"/><path d="m42.5895408 32.2924644c-.059292-.06804-.1458-.12636-.23328-.16524-.273132-.10692-.593892-.03888-.78732.16524-.06804.06804-.127332.144828-.16524.23328-.03888.08748-.05832.18468-.05832.28188 0 .193428.07776.36936.22356.51516.06804.06804.1458.11664.232308.15552.088452.03888.185652.05832.28188.05832.08748 0 .185652-.01944.273132-.05832s.16524-.08748.23328-.15552c.144828-.1458.222588-.321732.222588-.51516 0-.0972-.018468-.1944-.057348-.28188-.03888-.088452-.098172-.16524-.16524-.23328"/><path d="m38.1852144 49.0290408h4.615056c.402408 0 .729-.326592.729-.729s-.326592-.729-.729-.729h-4.615056c-.402408 0-.729.326592-.729.729s.326592.729.729.729"/><path d="m46.1757348 48.8164644c.137052.13608.32076.21384.51516.21384s.36936-.07776.516132-.21384c.067068-.06804.11664-.1458.15552-.243.03888-.08748.057348-.17496.057348-.27216s-.018468-.1944-.057348-.28188-.088452-.16524-.15552-.234252c-.069012-.067068-.156492-.125388-.243-.164268-.263412-.10692-.584172-.039852-.788292.164268-.13608.137052-.21384.321732-.21384.516132 0 .0972.00972.18468.0486.27216s.08748.17496.16524.243"/><path d="m25.151472 49.0290408h9.145548c.402408 0 .729-.326592.729-.729s-.326592-.729-.729-.729h-9.145548c-.402408 0-.729.326592-.729.729s.326592.729.729.729"/><path d="m30.1178088 51.4590408c-.402408 0-.729.326592-.729.729s.326592.729.729.729h4.614084c.402408 0 .729-.326592.729-.729s-.326592-.729-.729-.729z"/><path d="m39.6982296 51.4590408h-1.077948c-.402408 0-.729.326592-.729.729s.326592.729.729.729h1.077948c.402408 0 .729-.326592.729-.729s-.326592-.729-.729-.729"/><path d="m25.151472 52.9170408h1.077948c.402408 0 .729-.326592.729-.729s-.326592-.729-.729-.729h-1.077948c-.402408 0-.729.326592-.729.729s.326592.729.729.729"/><path d="m42.910398 51.9070356c-.03888.08748-.059292.18468-.059292.28188 0 .098172.020412.18468.059292.27216.03888.0972.08748.17496.15552.243.1458.13608.319788.21384.52488.21384.08748 0 .18468-.018468.271188-.05832.08748-.03888.16524-.086508.243-.15552.069012-.06804.117612-.1458.156492-.243.03888-.08748.05832-.173988.05832-.27216 0-.0972-.01944-.1944-.05832-.28188s-.08748-.16524-.156492-.23328c-.271188-.27216-.76788-.27216-1.039068 0-.06804.06804-.11664.1458-.15552.23328"/><path d="m46.798398 51.9070356c-.03888.08748-.059292.18468-.059292.28188 0 .1944.078732.36936.214812.51516.1458.13608.319788.21384.52488.21384.08748 0 .18468-.018468.271188-.05832.08748-.03888.16524-.086508.243-.15552.069012-.06804.117612-.1458.156492-.243.03888-.08748.05832-.173988.05832-.27216 0-.0972-.01944-.1944-.05832-.28188s-.08748-.16524-.156492-.23328c-.067068-.06804-.15552-.12636-.243-.154548-.271188-.117612-.591948-.049572-.796068.154548-.06804.06804-.11664.1458-.15552.23328"/><path d="m15.9507144 48.6h4.374v2.573856l-1.72044-1.432728c-.135108-.112752-.300348-.169128-.46656-.169128s-.331452.056376-.46656.169128l-1.72044 1.432728zm-1.038096 4.790988c.254664.119556.557928.081648.775656-.100116l2.44944-2.040228 2.44944 2.040228c.133164.110808.299376.169128.46656.169128.104976 0 .210924-.022356.309096-.069012.256608-.119556.419904-.377136.419904-.659988v-4.86c0-.402408-.326592-.729-.729-.729h-5.832c-.402408 0-.729.326592-.729.729v4.86c0 .282852.163296.540432.419904.659988z"/></g></svg>