<?xml version="1.0" encoding="UTF-8"?>
<svg width="62px" height="53px" viewBox="0 0 62 53" version="1.1" xmlns="http://www.w3.org/2000/svg" xmlns:xlink="http://www.w3.org/1999/xlink">
    <!-- Generator: Sketch 50 (54983) - http://www.bohemiancoding.com/sketch -->
    <title>Fill 1</title>
    <desc>Created with Sketch.</desc>
    <defs></defs>
    <g id="Page-1" stroke="none" stroke-width="1" fill="none" fill-rule="evenodd">
        <g id="DS_metod_sida" transform="translate(-1075.000000, -649.000000)" fill="#000000">
            <path d="M1093.46165,700.5 L1093.77665,699.974 L1108.25765,675.833 C1110.04565,676.819 1112.05865,677.34 1114.12665,677.34 C1116.19565,677.34 1118.20865,676.819 1119.99565,675.833 L1134.78265,700.5 L1093.46165,700.5 Z M1088.39965,682.023 C1088.45665,682.051 1088.51765,682.069 1088.57465,682.096 C1088.69665,682.151 1088.82165,682.2 1088.94665,682.25 C1089.12165,682.318 1089.29865,682.383 1089.47965,682.438 C1089.64765,682.492 1089.81565,682.54 1089.98665,682.583 C1090.10665,682.611 1090.22665,682.634 1090.34765,682.657 C1090.86465,682.76 1091.39165,682.83 1091.92765,682.83 C1092.46265,682.83 1092.98865,682.76 1093.50665,682.657 C1093.62765,682.634 1093.74765,682.611 1093.86665,682.583 C1094.03765,682.541 1094.20565,682.492 1094.37365,682.439 C1094.55565,682.383 1094.73365,682.318 1094.91065,682.249 C1095.03265,682.2 1095.15565,682.152 1095.27565,682.098 C1095.33465,682.071 1095.39765,682.052 1095.45465,682.023 L1099.12265,688.14 L1092.22865,699.64 L1091.71265,700.5 L1077.33065,700.5 L1088.39965,682.023 Z M1091.92765,676.139 L1094.67365,680.721 C1094.64065,680.736 1094.60865,680.757 1094.57465,680.771 C1094.53765,680.788 1094.49765,680.801 1094.45965,680.817 C1094.22765,680.912 1093.98865,680.996 1093.74665,681.063 L1093.64765,681.09 C1092.52565,681.384 1091.32265,681.383 1090.20165,681.089 C1090.17165,681.081 1090.14065,681.072 1090.10965,681.064 C1089.86465,680.996 1089.62465,680.912 1089.39065,680.815 C1089.35365,680.8 1089.31565,680.788 1089.27865,680.771 C1089.24465,680.757 1089.21465,680.736 1089.18065,680.721 L1091.92765,676.139 Z M1114.12665,666.039 L1119.22665,674.548 C1116.11665,676.243 1112.13765,676.243 1109.02765,674.548 L1114.12665,666.039 Z M1122.51165,653.244 L1122.51165,655.16 L1120.10465,655.16 L1114.87665,655.16 L1114.87665,650.77 L1122.51165,650.77 L1122.51165,653.244 Z M1126.44865,656.632 L1127.74465,658.384 L1120.85465,658.384 L1120.85465,656.66 L1123.26165,656.66 C1123.67565,656.66 1124.01165,656.324 1124.01165,655.91 L1124.01165,653.994 L1127.74265,653.994 L1126.44865,655.739 C1126.25265,656.004 1126.25265,656.366 1126.44865,656.632 Z M1136.75065,700.864 L1120.90065,674.424 L1114.87665,664.372 L1114.87665,656.66 L1119.35465,656.66 L1119.35465,659.134 C1119.35465,659.548 1119.69065,659.884 1120.10465,659.884 L1129.23265,659.884 C1129.51565,659.884 1129.77465,659.725 1129.90165,659.472 C1130.02865,659.219 1130.00365,658.915 1129.83465,658.687 L1127.98465,656.187 L1129.83465,653.69 C1130.00365,653.463 1130.02865,653.16 1129.90165,652.907 C1129.77465,652.653 1129.51565,652.494 1129.23265,652.494 L1124.01165,652.494 L1124.01165,650.02 C1124.01165,649.605 1123.67565,649.27 1123.26165,649.27 L1114.12665,649.27 C1113.71265,649.27 1113.37665,649.605 1113.37665,650.02 L1113.37665,650.205 L1113.37665,655.91 L1113.37665,664.372 L1107.35365,674.424 L1099.99865,686.685 L1096.37065,680.634 L1092.57065,674.294 C1092.43565,674.068 1092.19065,673.93 1091.92765,673.93 C1091.66365,673.93 1091.41965,674.068 1091.28365,674.294 L1087.48265,680.634 L1075.36365,700.864 C1075.22565,701.097 1075.22165,701.385 1075.35565,701.62 C1075.48765,701.854 1075.73665,702 1076.00765,702 L1092.13765,702 L1136.10765,702 C1136.37765,702 1136.62665,701.854 1136.75965,701.62 C1136.89365,701.385 1136.88965,701.096 1136.75065,700.864 Z" id="Fill-1"></path>
        </g>
    </g>
</svg>