<?xml version="1.0" encoding="UTF-8"?>
<svg width="47px" height="59px" viewBox="0 0 47 59" version="1.1" xmlns="http://www.w3.org/2000/svg" xmlns:xlink="http://www.w3.org/1999/xlink">
    <!-- Generator: Sketch 50 (54983) - http://www.bohemiancoding.com/sketch -->
    <title>Page 1</title>
    <desc>Created with Sketch.</desc>
    <defs>
        <polygon id="path-1" points="0.0003888 0.7088796 45.830772 0.7088796 45.830772 58.32 0.0003888 58.32"></polygon>
    </defs>
    <g id="Page-1" stroke="none" stroke-width="1" fill="none" fill-rule="evenodd">
        <g id="DS_verktyg" transform="translate(-711.000000, -267.000000)">
            <g id="Page-1" transform="translate(711.672000, 266.755563)">
                <g id="Group-3" transform="translate(0.000000, 0.262926)">
                    <mask id="mask-2" fill="white">
                        <use xlink:href="#path-1"></use>
                    </mask>
                    <g id="Clip-2"></g>
                    <path d="M41.2141608,22.4651556 C40.9147848,22.4651556 40.6056888,22.4107236 40.2684048,22.2979716 C40.0059648,22.2124356 39.7163088,22.2795036 39.5228808,22.4748756 C39.3275088,22.6702476 39.2594688,22.9589316 39.3469488,23.2203996 C39.4587288,23.5567116 39.5131608,23.8658076 39.5131608,24.1661556 C39.5131608,25.9079796 38.0959848,27.3251556 36.3541608,27.3251556 C34.6123368,27.3251556 33.1951608,25.9079796 33.1951608,24.1661556 C33.1951608,23.3205156 33.5266128,22.5234756 34.1282808,21.9208356 C34.3372608,21.7137996 34.3994688,21.3988716 34.2867168,21.1267116 C34.1739648,20.8545516 33.9076368,20.6766756 33.6131208,20.6766756 L13.2390288,20.6766756 C13.1039208,20.2373316 13.0261608,19.7746596 13.0261608,19.2964356 C13.0261608,18.8123796 13.1214168,18.3545676 13.2594408,17.9161956 L22.6227168,17.9161956 L22.6266048,17.9161956 L33.5936808,17.9161956 C33.8872248,17.9161956 34.1525808,17.7402636 34.2663048,17.4681036 C34.3800288,17.1978876 34.3197648,16.8849036 34.1127288,16.6759236 C33.5207808,16.0752276 33.1951608,15.2830476 33.1951608,14.4461556 C33.1951608,12.7043316 34.6123368,11.2871556 36.3541608,11.2871556 C38.0959848,11.2871556 39.5131608,12.7043316 39.5131608,14.4461556 C39.5131608,14.7465036 39.4587288,15.0555996 39.3469488,15.3919116 C39.2594688,15.6533796 39.3275088,15.9420636 39.5228808,16.1374356 C39.7163088,16.3318356 40.0069368,16.3998756 40.2684048,16.3143396 C40.6056888,16.2015876 40.9147848,16.1471556 41.2141608,16.1471556 C42.9559848,16.1471556 44.3731608,17.5643316 44.3731608,19.3061556 C44.3731608,21.0479796 42.9559848,22.4651556 41.2141608,22.4651556 Z M38.4789528,38.0297916 C39.3051528,38.9512476 39.7600488,40.1419476 39.7600488,41.3793036 L39.7600488,56.8622916 L31.4134848,56.8622916 L31.4134848,56.0837196 C31.4134848,55.6210476 31.2210288,55.1719836 30.8847168,54.8512236 L29.1001248,53.1531396 C28.1096568,52.2102996 27.5410368,50.8844916 27.5410368,49.5168876 L27.5410368,34.7599836 C27.5410368,34.0465356 28.1193768,33.2329716 28.7550648,33.0541236 C29.2906368,32.8976316 29.8291248,32.9851116 30.2665248,33.2912916 C30.6961488,33.5906676 30.9653928,34.0620876 31.0013568,34.5286476 L31.0071888,40.0797396 C31.0081608,41.0235516 31.3678008,41.9177916 32.0200128,42.5981916 L34.9369848,45.6415236 C35.1430488,45.8573076 35.4599208,45.9234036 35.7349968,45.8135676 C36.0110448,45.7027596 36.1918368,45.4354596 36.1918368,45.1370556 L36.1918368,35.4773196 L38.4789528,38.0297916 Z M20.4269688,32.8461156 L14.9176728,32.8461156 L15.9654888,24.1661556 C16.0033968,23.8609476 15.8430168,23.5644876 15.5679408,23.4264636 C14.9400288,23.1125076 14.4122328,22.6653876 13.9991328,22.1346756 L21.3212088,22.1346756 C20.9051928,22.6673316 20.3871168,23.1193116 19.7737848,23.4274356 C19.4996808,23.5664316 19.3412448,23.8619196 19.3781808,24.1661556 L20.4269688,32.8461156 Z M21.3377328,16.4581956 L14.0205168,16.4581956 C14.8710168,15.3656676 16.1841888,14.6502756 17.6723208,14.6502756 C19.1283768,14.6502756 20.4668208,15.3374796 21.3377328,16.4581956 Z M26.0830368,34.7599836 L26.0830368,42.0616476 L1.5390648,42.0616476 C1.5099048,42.0616476 1.4856048,42.0752556 1.4583888,42.0781716 L1.4583888,9.0486396 L34.7338368,9.0486396 L34.7338368,10.1372796 C32.9881248,10.7972676 31.7371608,12.4729956 31.7371608,14.4461556 C31.7371608,15.1537716 31.8965688,15.8380596 32.1969168,16.4581956 L23.0591448,16.4581956 C22.0016088,14.4655956 19.9468008,13.1922756 17.6723208,13.1922756 C14.3062848,13.1922756 11.5681608,15.9303996 11.5681608,19.2964356 C11.5681608,21.4396956 12.6636048,23.3798076 14.4598608,24.4771956 L13.3712208,33.4876356 C13.3469208,33.6946716 13.4110728,33.9026796 13.5500688,34.0581996 C13.6880928,34.2146916 13.8873528,34.3041156 14.0953608,34.3041156 L21.2492808,34.3041156 C21.4572888,34.3041156 21.6565488,34.2146916 21.7945728,34.0581996 C21.9335688,33.9026796 21.9977208,33.6946716 21.9734208,33.4876356 L20.8838088,24.4752516 C21.8072088,23.9066316 22.5459288,23.0911236 23.0503968,22.1346756 L32.2056648,22.1346756 C31.8994848,22.7606436 31.7371608,23.4517356 31.7371608,24.1661556 C31.7371608,26.1393156 32.9881248,27.8150436 34.7338368,28.4750316 L34.7338368,33.5683116 L34.7338368,33.5741436 L34.7338368,43.3233036 L33.0726888,41.5902276 C32.6819448,41.1810156 32.4661608,40.6444716 32.4651888,40.0777956 L32.4574128,34.4732436 C32.3864568,33.5148516 31.8926808,32.6487996 31.1014728,32.0957316 C30.3112368,31.5436356 29.3100768,31.3813116 28.3575168,31.6505556 C27.1036368,32.0043636 26.0830368,33.4001556 26.0830368,34.7599836 Z M26.0830368,49.2272316 L5.0421528,49.2272316 C3.0660768,49.2272316 1.4583888,47.6195436 1.4583888,45.6434676 L1.4583888,43.5040956 C1.4856048,43.5060396 1.5099048,43.5196476 1.5390648,43.5196476 L26.0830368,43.5196476 L26.0830368,49.2272316 Z M1.4583888,5.7516156 C1.4583888,3.7745676 3.0660768,2.1668796 5.0421528,2.1668796 L31.1500728,2.1668796 C33.1261488,2.1668796 34.7338368,3.7745676 34.7338368,5.7516156 L34.7338368,7.5906396 L1.4583888,7.5906396 L1.4583888,5.7516156 Z M45.8311608,19.3061556 C45.8311608,16.6768956 43.6081968,14.5589076 40.9633848,14.6969316 C40.9682448,14.6133396 40.9711608,14.5297476 40.9711608,14.4461556 C40.9711608,11.9004876 38.8998288,9.8291556 36.3541608,9.8291556 C36.2987568,9.8291556 36.2472408,9.8437356 36.1918368,9.8456796 L36.1918368,5.7516156 C36.1918368,2.9707236 33.9299928,0.7088796 31.1500728,0.7088796 L5.0421528,0.7088796 C2.2622328,0.7088796 0.0003888,2.9707236 0.0003888,5.7516156 L0.0003888,45.6434676 C0.0003888,48.4233876 2.2622328,50.6852316 5.0421528,50.6852316 L26.1957888,50.6852316 C26.4436488,52.0197876 27.1016928,53.2639476 28.0950768,54.2087316 L29.8786968,55.9058436 C29.9272968,55.9524996 29.9554848,56.0176236 29.9554848,56.0837196 L29.9554848,57.5912916 C29.9554848,57.9936996 30.2811048,58.3202916 30.6844848,58.3202916 L40.4890488,58.3202916 C40.8914568,58.3202916 41.2180488,57.9936996 41.2180488,57.5912916 L41.2180488,41.3793036 C41.2180488,39.7813356 40.6309608,38.2455756 39.5646768,37.0568196 L36.1918368,33.2922636 L36.1918368,28.7666316 C36.2472408,28.7685756 36.2987568,28.7831556 36.3541608,28.7831556 C38.8998288,28.7831556 40.9711608,26.7118236 40.9711608,24.1661556 C40.9711608,24.0825636 40.9682448,23.9989716 40.9633848,23.9153796 C43.5975048,24.0650676 45.8311608,21.9354156 45.8311608,19.3061556 Z" id="Fill-1" fill="#FFFFFF" mask="url(#mask-2)"></path>
                </g>
                <path d="M38.1951288,19.0583928 C37.9229688,18.7765128 37.4369688,18.7765128 37.1648088,19.0583928 C37.0287288,19.1944728 36.9509688,19.3791528 36.9509688,19.5638328 C36.9509688,19.6707528 36.9704088,19.7582328 37.0092888,19.8457128 C37.0481688,19.9322208 37.0967688,20.0099808 37.1648088,20.0789928 C37.3008888,20.2247928 37.4855688,20.3025528 37.6799688,20.3025528 C37.8743688,20.3025528 38.0590488,20.2247928 38.1951288,20.0789928 C38.2631688,20.0099808 38.3214888,19.9322208 38.3506488,19.8457128 C38.3895288,19.7582328 38.4089688,19.6610328 38.4089688,19.5638328 C38.4089688,19.4763528 38.3895288,19.3791528 38.3506488,19.2916728 C38.3214888,19.2032208 38.2631688,19.1167128 38.1951288,19.0583928" id="Fill-4" fill="#FFFFFF"></path>
                <path d="M3.9421404,39.0527244 C3.8060604,39.1888044 3.7283004,39.3725124 3.7283004,39.5669124 C3.7283004,39.6650844 3.7477404,39.7613124 3.7769004,39.8487924 C3.8157804,39.9362724 3.8741004,40.0140324 3.9421404,40.0830444 C4.0101804,40.1510844 4.0879404,40.2084324 4.1754204,40.2385644 C4.2629004,40.2774444 4.3601004,40.2959124 4.4573004,40.2959124 C4.5545004,40.2959124 4.6419804,40.2774444 4.7294604,40.2385644 C4.8266604,40.2084324 4.9044204,40.1510844 4.9724604,40.0830444 C5.0405004,40.0140324 5.0891004,39.9362724 5.1279804,39.8487924 C5.1668604,39.7613124 5.1863004,39.6650844 5.1863004,39.5669124 C5.1863004,39.3725124 5.1085404,39.1888044 4.9724604,39.0527244 C4.7003004,38.7805644 4.2045804,38.7805644 3.9421404,39.0527244" id="Fill-6" fill="#FFFFFF"></path>
                <path d="M7.8301404,39.0527244 C7.6940604,39.1888044 7.6163004,39.3725124 7.6163004,39.5669124 C7.6163004,39.6650844 7.6357404,39.7613124 7.6649004,39.8487924 C7.7037804,39.9362724 7.7621004,40.0140324 7.8301404,40.0830444 C7.8981804,40.1510844 7.9759404,40.2084324 8.0634204,40.2385644 C8.1509004,40.2774444 8.2481004,40.2959124 8.3453004,40.2959124 C8.5397004,40.2959124 8.7243804,40.2181524 8.8604604,40.0830444 C8.9285004,40.0140324 8.9771004,39.9362724 9.0159804,39.8487924 C9.0548604,39.7613124 9.0743004,39.6650844 9.0743004,39.5669124 C9.0743004,39.3725124 8.9965404,39.1888044 8.8604604,39.0527244 C8.5883004,38.7805644 8.0925804,38.7805644 7.8301404,39.0527244" id="Fill-8" fill="#FFFFFF"></path>
                <path d="M11.7181404,39.0527244 C11.5820604,39.1888044 11.5043004,39.3725124 11.5043004,39.5669124 C11.5043004,39.6650844 11.5237404,39.7613124 11.5529004,39.8487924 C11.5917804,39.9362724 11.6501004,40.0140324 11.7181404,40.0830444 C11.8542204,40.2181524 12.0389004,40.2959124 12.2333004,40.2959124 C12.4277004,40.2959124 12.6123804,40.2181524 12.7484604,40.0830444 C12.8165004,40.0140324 12.8651004,39.9362724 12.9039804,39.8487924 C12.9428604,39.7613124 12.9623004,39.6650844 12.9623004,39.5669124 C12.9623004,39.3725124 12.8845404,39.1888044 12.7484604,39.0527244 C12.4763004,38.7805644 11.9903004,38.7805644 11.7181404,39.0527244" id="Fill-10" fill="#FFFFFF"></path>
            </g>
        </g>
    </g>
</svg>