<?xml version="1.0" encoding="utf-8"?>
<!-- Generator: Adobe Illustrator 22.0.1, SVG Export Plug-In . SVG Version: 6.00 Build 0)  -->
<svg version="1.1" id="Lager_1" xmlns="http://www.w3.org/2000/svg" xmlns:xlink="http://www.w3.org/1999/xlink" x="0px" y="0px"
	 viewBox="0 0 60 61" style="enable-background:new 0 0 60 61;" xml:space="preserve">
<style type="text/css">
	.st0{filter:url(#Adobe_OpacityMaskFilter);}
	.st1{fill:#FFFFFF;}
	.st2{mask:url(#mask-2_1_);fill:#262626;}
	.st3{fill:#262626;}
</style>
<title>Page 1</title>
<desc>Created with Sketch.</desc>
<g id="Page-1_1_">
	<g id="DS_Resurser" transform="translate(-700.000000, -261.000000)">
		<g id="Page-1" transform="translate(700.854000, 260.457931)">
			<g id="Group-3" transform="translate(0.000000, 0.486000)">
				<g id="Clip-2">
				</g>
				<defs>
					<filter id="Adobe_OpacityMaskFilter" filterUnits="userSpaceOnUse" x="0" y="0.5" width="58.9" height="59.8">
						<feColorMatrix  type="matrix" values="1 0 0 0 0  0 1 0 0 0  0 0 1 0 0  0 0 0 1 0"/>
					</filter>
				</defs>
				<mask maskUnits="userSpaceOnUse" x="0" y="0.5" width="58.9" height="59.8" id="mask-2_1_">
					<g class="st0">
						<polygon id="path-1_1_" class="st1" points="0,0.5 58.9,0.5 58.9,60.3 0,60.3 						"/>
					</g>
				</mask>
				<path id="Fill-1" class="st2" d="M56,16.5H11.7c-1.8,0-3.4-0.6-4.6-1.7c-1.2-1-1.9-2.4-1.9-3.9c0-1.5,0.7-2.9,1.9-3.9
					C8.3,6,10,5.4,11.7,5.4H56C54,8.8,54,13.1,56,16.5z M56,35.9H11.7c-1.8,0-3.4-0.6-4.6-1.7c-1.2-1-1.9-2.4-1.9-3.9
					c0-1.5,0.7-2.9,1.9-3.9c1.2-1.1,2.9-1.7,4.6-1.7H56C54,28.2,54,32.5,56,35.9z M56,55.4H11.7c-1.8,0-3.4-0.6-4.6-1.7
					c-1.2-1-1.9-2.4-1.9-3.9c0-1.5,0.7-2.9,1.9-3.9c1.2-1.1,2.9-1.7,4.6-1.7H56C54,47.7,54,51.9,56,55.4z M57.5,58.8h-47
					c-5,0-9-4-9-9c0-5,4-9,9-9h47v2H11.7c-2.1,0-4.1,0.7-5.6,2c-1.5,1.3-2.4,3.1-2.4,5c0,1.9,0.8,3.7,2.4,5c1.5,1.3,3.5,2,5.6,2
					h45.7V58.8z M1.5,30.4c0-5,4-9,9-9h47v2H11.7c-2.1,0-4.1,0.7-5.6,2c-1.5,1.3-2.4,3.1-2.4,5c0,1.9,0.8,3.7,2.4,5
					c1.5,1.3,3.5,2,5.6,2h45.7v2h-47C5.5,39.4,1.5,35.3,1.5,30.4z M1.5,10.9c0-5,4-9,9-9h47v2H11.7c-2.1,0-4.1,0.7-5.6,2
					c-1.5,1.3-2.4,3.1-2.4,5s0.8,3.7,2.4,5c1.5,1.3,3.5,2,5.6,2h45.7v2h-47C5.5,19.9,1.5,15.9,1.5,10.9z M57.7,5.4h0.5
					c0.4,0,0.7-0.3,0.7-0.7V1.2c0-0.4-0.3-0.7-0.7-0.7H10.4C4.7,0.5,0,5.2,0,10.9c0,4.4,2.8,8.2,6.6,9.7C2.8,22.2,0,26,0,30.4
					s2.8,8.2,6.6,9.7C2.8,41.6,0,45.4,0,49.8c0,5.8,4.7,10.4,10.4,10.4h47.8c0.4,0,0.7-0.3,0.7-0.7v-3.4c0-0.4-0.3-0.7-0.7-0.7h-0.5
					c-2.3-3.3-2.3-7.8,0-11.1h0.5c0.4,0,0.7-0.3,0.7-0.7v-3.4v-3.4c0-0.4-0.3-0.7-0.7-0.7h-0.5c-2.3-3.3-2.3-7.8,0-11.1h0.5
					c0.4,0,0.7-0.3,0.7-0.7v-3.4v-3.4c0-0.4-0.3-0.7-0.7-0.7h-0.5C55.4,13.2,55.4,8.7,57.7,5.4z"/>
			</g>
			<path id="Fill-4" class="st3" d="M34.3,8.7H19.2c-0.4,0-0.7,0.3-0.7,0.7c0,0.4,0.3,0.7,0.7,0.7h15.1c0.4,0,0.7-0.3,0.7-0.7
				C35,9.1,34.7,8.7,34.3,8.7"/>
			<path id="Fill-6" class="st3" d="M42.8,8.7h-4.6c-0.4,0-0.7,0.3-0.7,0.7c0,0.4,0.3,0.7,0.7,0.7h4.6c0.4,0,0.7-0.3,0.7-0.7
				C43.5,9.1,43.2,8.7,42.8,8.7"/>
			<path id="Fill-8" class="st3" d="M47,8.8c-0.2-0.1-0.4-0.1-0.6,0c-0.1,0-0.2,0.1-0.2,0.2C46,9.1,46,9.3,46,9.5
				c0,0.2,0.1,0.4,0.2,0.5c0.1,0.1,0.3,0.2,0.5,0.2c0.2,0,0.4-0.1,0.5-0.2c0.1-0.1,0.2-0.3,0.2-0.5c0-0.2-0.1-0.4-0.2-0.5
				C47.1,8.9,47.1,8.8,47,8.8"/>
			<path id="Fill-10" class="st3" d="M24.5,12.6h-9.1c-0.4,0-0.7,0.3-0.7,0.7c0,0.4,0.3,0.7,0.7,0.7h9.1c0.4,0,0.7-0.3,0.7-0.7
				C25.3,13,25,12.6,24.5,12.6"/>
			<path id="Fill-12" class="st3" d="M33.3,12.6h-4.9c-0.4,0-0.7,0.3-0.7,0.7c0,0.4,0.3,0.7,0.7,0.7h4.9c0.4,0,0.7-0.3,0.7-0.7
				C34.1,13,33.7,12.6,33.3,12.6"/>
			<path id="Fill-14" class="st3" d="M38.3,12.6h-1.1c-0.4,0-0.7,0.3-0.7,0.7c0,0.4,0.3,0.7,0.7,0.7h1.1c0.4,0,0.7-0.3,0.7-0.7
				C39,13,38.7,12.6,38.3,12.6"/>
			<path id="Fill-16" class="st3" d="M42.5,12.7c-0.2-0.1-0.4-0.1-0.6,0c-0.1,0-0.2,0.1-0.2,0.2c-0.1,0.1-0.1,0.1-0.2,0.2
				c0,0.1-0.1,0.2-0.1,0.3c0,0.2,0.1,0.4,0.2,0.5c0.1,0.1,0.1,0.1,0.2,0.2c0.1,0,0.2,0.1,0.3,0.1c0.1,0,0.2,0,0.3-0.1
				c0.1,0,0.2-0.1,0.2-0.2c0.1-0.1,0.2-0.3,0.2-0.5c0-0.2-0.1-0.4-0.2-0.5C42.6,12.8,42.6,12.7,42.5,12.7"/>
			<path id="Fill-18" class="st3" d="M19.2,29.6h15.1c0.4,0,0.7-0.3,0.7-0.7s-0.3-0.7-0.7-0.7H19.2c-0.4,0-0.7,0.3-0.7,0.7
				S18.8,29.6,19.2,29.6"/>
			<path id="Fill-20" class="st3" d="M38.2,29.6h4.6c0.4,0,0.7-0.3,0.7-0.7s-0.3-0.7-0.7-0.7h-4.6c-0.4,0-0.7,0.3-0.7,0.7
				S37.8,29.6,38.2,29.6"/>
			<path id="Fill-22" class="st3" d="M46.7,29.6c0.2,0,0.4-0.1,0.5-0.2c0.1-0.1,0.2-0.3,0.2-0.5c0-0.1,0-0.2-0.1-0.3
				c0-0.1-0.1-0.2-0.2-0.2c-0.3-0.3-0.8-0.3-1,0c-0.1,0.1-0.1,0.1-0.2,0.2c0,0.1,0,0.2,0,0.3c0,0.2,0.1,0.4,0.2,0.5
				C46.3,29.6,46.5,29.6,46.7,29.6"/>
			<path id="Fill-24" class="st3" d="M33.2,32.1h-9.1c-0.4,0-0.7,0.3-0.7,0.7s0.3,0.7,0.7,0.7h9.1c0.4,0,0.7-0.3,0.7-0.7
				S33.6,32.1,33.2,32.1"/>
			<path id="Fill-26" class="st3" d="M15.3,33.5h4.9c0.4,0,0.7-0.3,0.7-0.7s-0.3-0.7-0.7-0.7h-4.9c-0.4,0-0.7,0.3-0.7,0.7
				S14.9,33.5,15.3,33.5"/>
			<path id="Fill-28" class="st3" d="M37.1,33.5h1.1c0.4,0,0.7-0.3,0.7-0.7s-0.3-0.7-0.7-0.7h-1.1c-0.4,0-0.7,0.3-0.7,0.7
				S36.7,33.5,37.1,33.5"/>
			<path id="Fill-30" class="st3" d="M42.6,32.3c-0.1-0.1-0.1-0.1-0.2-0.2c-0.3-0.1-0.6,0-0.8,0.2c-0.1,0.1-0.1,0.1-0.2,0.2
				c0,0.1-0.1,0.2-0.1,0.3c0,0.2,0.1,0.4,0.2,0.5c0.1,0.1,0.1,0.1,0.2,0.2c0.1,0,0.2,0.1,0.3,0.1c0.1,0,0.2,0,0.3-0.1
				c0.1,0,0.2-0.1,0.2-0.2c0.1-0.1,0.2-0.3,0.2-0.5c0-0.1,0-0.2-0.1-0.3C42.7,32.4,42.7,32.4,42.6,32.3"/>
			<path id="Fill-32" class="st3" d="M38.2,49h4.6c0.4,0,0.7-0.3,0.7-0.7s-0.3-0.7-0.7-0.7h-4.6c-0.4,0-0.7,0.3-0.7,0.7
				S37.8,49,38.2,49"/>
			<path id="Fill-34" class="st3" d="M46.2,48.8c0.1,0.1,0.3,0.2,0.5,0.2s0.4-0.1,0.5-0.2c0.1-0.1,0.1-0.1,0.2-0.2
				c0-0.1,0.1-0.2,0.1-0.3c0-0.1,0-0.2-0.1-0.3c0-0.1-0.1-0.2-0.2-0.2c-0.1-0.1-0.2-0.1-0.2-0.2c-0.3-0.1-0.6,0-0.8,0.2
				C46,47.9,46,48.1,46,48.3c0,0.1,0,0.2,0,0.3C46,48.7,46.1,48.7,46.2,48.8"/>
			<path id="Fill-36" class="st3" d="M25.2,49h9.1c0.4,0,0.7-0.3,0.7-0.7s-0.3-0.7-0.7-0.7h-9.1c-0.4,0-0.7,0.3-0.7,0.7
				S24.7,49,25.2,49"/>
			<path id="Fill-38" class="st3" d="M30.1,51.5c-0.4,0-0.7,0.3-0.7,0.7s0.3,0.7,0.7,0.7h4.6c0.4,0,0.7-0.3,0.7-0.7
				s-0.3-0.7-0.7-0.7H30.1z"/>
			<path id="Fill-40" class="st3" d="M39.7,51.5h-1.1c-0.4,0-0.7,0.3-0.7,0.7s0.3,0.7,0.7,0.7h1.1c0.4,0,0.7-0.3,0.7-0.7
				S40.1,51.5,39.7,51.5"/>
			<path id="Fill-42" class="st3" d="M25.2,52.9h1.1c0.4,0,0.7-0.3,0.7-0.7s-0.3-0.7-0.7-0.7h-1.1c-0.4,0-0.7,0.3-0.7,0.7
				S24.7,52.9,25.2,52.9"/>
			<path id="Fill-44" class="st3" d="M42.9,51.9c0,0.1-0.1,0.2-0.1,0.3c0,0.1,0,0.2,0.1,0.3c0,0.1,0.1,0.2,0.2,0.2
				c0.1,0.1,0.3,0.2,0.5,0.2c0.1,0,0.2,0,0.3-0.1c0.1,0,0.2-0.1,0.2-0.2c0.1-0.1,0.1-0.1,0.2-0.2c0-0.1,0.1-0.2,0.1-0.3
				c0-0.1,0-0.2-0.1-0.3s-0.1-0.2-0.2-0.2c-0.3-0.3-0.8-0.3-1,0C43,51.7,42.9,51.8,42.9,51.9"/>
			<path id="Fill-46" class="st3" d="M46.8,51.9c0,0.1-0.1,0.2-0.1,0.3c0,0.2,0.1,0.4,0.2,0.5c0.1,0.1,0.3,0.2,0.5,0.2
				c0.1,0,0.2,0,0.3-0.1c0.1,0,0.2-0.1,0.2-0.2c0.1-0.1,0.1-0.1,0.2-0.2c0-0.1,0.1-0.2,0.1-0.3c0-0.1,0-0.2-0.1-0.3
				s-0.1-0.2-0.2-0.2c-0.1-0.1-0.2-0.1-0.2-0.2c-0.3-0.1-0.6,0-0.8,0.2C46.9,51.7,46.8,51.8,46.8,51.9"/>
			<path id="Fill-48" class="st3" d="M16,48.6h4.4v2.6l-1.7-1.4c-0.1-0.1-0.3-0.2-0.5-0.2s-0.3,0.1-0.5,0.2L16,51.2V48.6z
				 M14.9,53.4c0.3,0.1,0.6,0.1,0.8-0.1l2.4-2l2.4,2c0.1,0.1,0.3,0.2,0.5,0.2c0.1,0,0.2,0,0.3-0.1c0.3-0.1,0.4-0.4,0.4-0.7v-4.9
				c0-0.4-0.3-0.7-0.7-0.7h-5.8c-0.4,0-0.7,0.3-0.7,0.7v4.9C14.5,53,14.7,53.3,14.9,53.4z"/>
		</g>
	</g>
</g>
</svg>
