<?xml version="1.0" encoding="UTF-8"?>
<svg width="45px" height="69px" viewBox="0 0 45 69" version="1.1" xmlns="http://www.w3.org/2000/svg" xmlns:xlink="http://www.w3.org/1999/xlink">
    <!-- Generator: Sketch 50 (54983) - http://www.bohemiancoding.com/sketch -->
    <title>Page 1</title>
    <desc>Created with Sketch.</desc>
    <defs>
        <polygon id="path-1" points="0 0.3818988 44.044192 0.3818988 44.044192 58.3199028 0 58.3199028"></polygon>
        <polygon id="path-3" points="0.8812152 0.410184 2.3392152 0.410184 2.3392152 8.9957628 0.8812152 8.9957628"></polygon>
    </defs>
    <g id="Page-1" stroke="none" stroke-width="1" fill="none" fill-rule="evenodd">
        <g id="DS_metoder" transform="translate(-706.000000, -257.000000)">
            <g id="Page-1" transform="translate(706.644000, 256.074776)">
                <g id="Group-3" transform="translate(0.000000, 11.253913)">
                    <mask id="mask-2" fill="white">
                        <use xlink:href="#path-1"></use>
                    </mask>
                    <g id="Clip-2"></g>
                    <path d="M31.988034,46.0513188 L30.628206,46.0513188 L13.417002,46.0513188 L12.056202,46.0513188 L12.056202,42.6493188 L31.988034,42.6493188 L31.988034,46.0513188 Z M27.502254,56.8619028 L16.541982,56.8619028 L14.337486,47.5093188 L21.293118,47.5093188 L21.293118,49.2103188 C21.293118,49.6127268 21.61971,49.9393188 22.022118,49.9393188 C22.424526,49.9393188 22.751118,49.6127268 22.751118,49.2103188 L22.751118,47.5093188 L25.181118,47.5093188 L25.181118,51.2349948 C25.181118,51.6374028 25.50771,51.9639948 25.910118,51.9639948 C26.312526,51.9639948 26.639118,51.6374028 26.639118,51.2349948 L26.639118,47.5093188 L29.70675,47.5093188 L27.502254,56.8619028 Z M3.872934,27.0205308 C1.595538,24.7431348 1.434186,20.9144268 1.466262,19.4194908 C2.972862,19.3854708 6.789906,19.5497388 9.067302,21.8261628 C10.985058,23.7448908 11.396214,26.7473988 11.46231,28.5446268 L6.355422,23.4377388 C6.070626,23.1529428 5.608926,23.1529428 5.32413,23.4377388 C5.039334,23.7225348 5.039334,24.1842348 5.32413,24.4690308 L10.265778,29.4106788 C8.450082,29.3086188 5.679882,28.8265068 3.872934,27.0205308 Z M17.909586,28.5553188 C17.238906,28.5553188 16.694586,28.0100268 16.694586,27.3403188 C16.694586,26.6706108 17.238906,26.1253188 17.909586,26.1253188 L21.293118,26.1253188 L21.293118,28.5553188 L17.909586,28.5553188 Z M14.958594,16.3693548 C13.277034,14.2562268 13.058334,12.3676308 13.067082,10.7978508 C13.094298,5.8581468 17.110602,1.8398988 22.022118,1.8398988 C26.932662,1.8398988 30.949938,5.8581468 30.977154,10.7978508 C30.98493,12.3686028 30.76623,14.2571988 29.080782,16.3751868 C28.903878,16.6016628 28.719198,16.8310548 28.528686,17.0672508 C27.073602,18.8722548 25.270542,21.1195188 25.242354,24.6673188 L22.751118,24.6673188 L22.751118,12.9935988 L26.238654,9.5060628 C26.52345,9.2212668 26.52345,8.7605388 26.238654,8.4757428 C25.953858,8.1909468 25.492158,8.1909468 25.207362,8.4757428 L22.022118,11.6609868 L18.836874,8.4757428 C18.552078,8.1909468 18.090378,8.1909468 17.805582,8.4757428 C17.520786,8.7605388 17.520786,9.2212668 17.805582,9.5060628 L21.293118,12.9935988 L21.293118,24.6673188 L18.802854,24.6673188 C18.773694,21.1214628 16.971606,18.8751708 15.517494,17.0701668 C15.32601,16.8329988 15.140358,16.6026348 14.958594,16.3693548 Z M27.350622,27.3403188 C27.350622,28.0100268 26.80533,28.5553188 26.135622,28.5553188 L22.751118,28.5553188 L22.751118,26.1253188 L26.135622,26.1253188 C26.80533,26.1253188 27.350622,26.6706108 27.350622,27.3403188 Z M34.976934,25.9066188 C37.253358,23.6301948 41.087898,23.4707868 42.578946,23.4999468 C42.61005,24.9948828 42.448698,28.8226188 40.171302,31.1000148 C38.253546,33.0187428 35.246178,33.4279548 33.450894,33.4940508 L38.680254,28.2646908 C38.96505,27.9798948 38.96505,27.5191668 38.680254,27.2343708 C38.395458,26.9495748 37.933758,26.9495748 37.648962,27.2343708 L32.596506,32.2868268 C32.698566,30.4701588 33.169014,27.7155108 34.976934,25.9066188 Z M27.82107,38.8225548 C28.014498,38.8225548 28.20015,38.7447948 28.33623,38.6087148 L32.001642,34.9433028 C32.192154,34.9569108 32.503194,34.9734348 32.926014,34.9734348 C34.826274,34.9734348 38.696778,34.6361508 41.201622,32.1313068 C44.555022,28.7779068 44.02431,22.9779828 43.999038,22.7320668 C43.965018,22.3860348 43.691886,22.1129028 43.346826,22.0788828 C43.099938,22.0526388 37.29807,21.5238708 33.946614,24.8762988 C31.119066,27.7019028 31.053942,32.2537788 31.117122,33.7652388 L27.518778,37.3635828 L22.751118,37.3635828 L22.751118,30.0133188 L26.135622,30.0133188 C27.609174,30.0133188 28.808622,28.8148428 28.808622,27.3403188 C28.808622,26.0592228 27.901746,24.9880788 26.696466,24.7285548 C26.70327,21.6580068 28.275966,19.7052588 29.663982,17.9819028 C29.860326,17.7398748 30.049866,17.5036788 30.22677,17.2762308 C32.19993,14.7976308 32.443902,12.5075988 32.435154,10.7910468 C32.40405,5.0504148 27.732618,0.3818988 22.022118,0.3818988 C16.310646,0.3818988 11.639214,5.0504148 11.609082,10.7910468 C11.599362,12.5066268 11.842362,14.7956868 13.813578,17.2703988 C13.99437,17.5046508 14.185854,17.7408468 14.382198,17.9848188 C15.769242,19.7062308 17.341938,21.6599508 17.34777,24.7285548 C16.14249,24.9880788 15.236586,26.0592228 15.236586,27.3403188 C15.236586,28.8148428 16.435062,30.0133188 17.909586,30.0133188 L21.293118,30.0133188 L21.293118,33.3501948 L16.266906,33.3501948 L12.91059,29.9929068 C12.98349,28.9353708 13.156506,23.8537548 10.097622,20.7958428 C6.742278,17.4414708 0.94527,17.9702388 0.698382,17.9984268 C0.35235,18.0324468 0.079218,18.3055788 0.045198,18.6516108 C0.019926,18.8965548 -0.511758,24.6984228 2.842614,28.0508508 C5.34843,30.5576388 9.220878,30.8929788 11.120166,30.8929788 C11.364138,30.8929788 11.563398,30.8871468 11.735442,30.8803428 L15.449454,34.5943548 C15.586506,34.7314068 15.771186,34.8081948 15.965586,34.8081948 L21.293118,34.8081948 L21.293118,41.1913188 L11.327202,41.1913188 C10.924794,41.1913188 10.598202,41.5179108 10.598202,41.9203188 L10.598202,46.7803188 C10.598202,47.1827268 10.924794,47.5093188 11.327202,47.5093188 L12.839634,47.5093188 L15.255054,57.7580868 C15.332814,58.0875948 15.62733,58.3199028 15.965586,58.3199028 L28.079622,58.3199028 C28.416906,58.3199028 28.711422,58.0875948 28.789182,57.7580868 L31.204602,47.5093188 L32.717034,47.5093188 C33.119442,47.5093188 33.446034,47.1827268 33.446034,46.7803188 L33.446034,41.9203188 C33.446034,41.5179108 33.119442,41.1913188 32.717034,41.1913188 L22.751118,41.1913188 L22.751118,38.8225548 L27.82107,38.8225548 Z" id="Fill-1" fill="#FFFFFF" mask="url(#mask-2)"></path>
                </g>
                <path d="M10.8812484,13.8357396 C11.0231604,13.9776516 11.2097844,14.0495796 11.3964084,14.0495796 C11.5840044,14.0495796 11.7696564,13.9776516 11.9125404,13.8357396 C12.1973364,13.5509436 12.1973364,13.0892436 11.9125404,12.8044476 L7.1244684,8.0183196 C6.8396724,7.7335236 6.3779724,7.7335236 6.0931764,8.0183196 C5.8083804,8.3031156 5.8083804,8.7638436 6.0931764,9.0486396 L10.8812484,13.8357396 Z" id="Fill-4" fill="#FFFFFF"></path>
                <path d="M32.395302,14.3018136 C32.581926,14.3018136 32.76855,14.2308576 32.910462,14.0879736 L37.950282,9.0491256 C38.235078,8.7643296 38.235078,8.3026296 37.950282,8.0178336 C37.665486,7.7330376 37.203786,7.7330376 36.91899,8.0178336 L31.880142,13.0576536 C31.595346,13.3424496 31.595346,13.8031776 31.880142,14.0879736 C32.022054,14.2308576 32.208678,14.3018136 32.395302,14.3018136" id="Fill-6" fill="#FFFFFF"></path>
                <g id="Group-10" transform="translate(20.412000, 0.561913)">
                    <mask id="mask-4" fill="white">
                        <use xlink:href="#path-3"></use>
                    </mask>
                    <g id="Clip-9"></g>
                    <path d="M1.6102152,8.9957628 C2.0126232,8.9957628 2.3392152,8.6691708 2.3392152,8.2667628 L2.3392152,1.1390868 C2.3392152,0.7366788 2.0126232,0.4100868 1.6102152,0.4100868 C1.2078072,0.4100868 0.8812152,0.7366788 0.8812152,1.1390868 L0.8812152,8.2667628 C0.8812152,8.6691708 1.2078072,8.9957628 1.6102152,8.9957628" id="Fill-8" fill="#FFFFFF" mask="url(#mask-4)"></path>
                </g>
            </g>
        </g>
    </g>
</svg>