<?xml version="1.0" encoding="UTF-8"?>
<!DOCTYPE svg PUBLIC "-//W3C//DTD SVG 1.1//EN" "http://www.w3.org/Graphics/SVG/1.1/DTD/svg11.dtd">
<svg version="1.1" xmlns="http://www.w3.org/2000/svg" xmlns:xlink="http://www.w3.org/1999/xlink" x="0" y="0" width="62" height="66" viewBox="0, 0, 62, 66">
  <g id="Page-1">
    <path d="M18.404,57.865 L18.719,57.339 L33.2,33.198 C34.988,34.184 37.001,34.705 39.069,34.705 C41.138,34.705 43.151,34.184 44.938,33.198 L59.725,57.865 L18.404,57.865 z M13.342,39.388 C13.399,39.416 13.46,39.434 13.517,39.461 C13.639,39.516 13.764,39.565 13.889,39.615 C14.064,39.683 14.241,39.748 14.422,39.803 C14.59,39.857 14.758,39.905 14.929,39.948 C15.049,39.976 15.169,39.999 15.29,40.022 C15.807,40.125 16.334,40.195 16.87,40.195 C17.405,40.195 17.931,40.125 18.449,40.022 C18.57,39.999 18.69,39.976 18.809,39.948 C18.98,39.906 19.148,39.857 19.316,39.804 C19.498,39.748 19.676,39.683 19.853,39.614 C19.975,39.565 20.098,39.517 20.218,39.463 C20.277,39.436 20.34,39.417 20.397,39.388 L24.065,45.505 L17.171,57.005 L16.655,57.865 L2.273,57.865 L13.342,39.388 z M16.87,33.504 L19.616,38.086 C19.583,38.101 19.551,38.122 19.517,38.136 C19.48,38.153 19.44,38.166 19.402,38.182 C19.17,38.277 18.931,38.361 18.689,38.428 L18.59,38.455 C17.468,38.749 16.265,38.748 15.144,38.454 C15.114,38.446 15.083,38.437 15.052,38.429 C14.807,38.361 14.567,38.277 14.333,38.18 C14.296,38.165 14.258,38.153 14.221,38.136 C14.187,38.122 14.157,38.101 14.123,38.086 L16.87,33.504 z M39.069,23.404 L44.169,31.913 C41.059,33.608 37.08,33.608 33.97,31.913 L39.069,23.404 z M47.454,10.609 L47.454,12.525 L45.047,12.525 L39.819,12.525 L39.819,8.135 L47.454,8.135 L47.454,10.609 z M51.391,13.997 L52.687,15.749 L45.797,15.749 L45.797,14.025 L48.204,14.025 C48.618,14.025 48.954,13.689 48.954,13.275 L48.954,11.359 L52.685,11.359 L51.391,13.104 C51.195,13.369 51.195,13.731 51.391,13.997 z M61.693,58.229 L45.843,31.789 L39.819,21.737 L39.819,14.025 L44.297,14.025 L44.297,16.499 C44.297,16.913 44.633,17.249 45.047,17.249 L54.175,17.249 C54.458,17.249 54.717,17.09 54.844,16.837 C54.971,16.584 54.946,16.28 54.777,16.052 L52.927,13.552 L54.777,11.055 C54.946,10.828 54.971,10.525 54.844,10.272 C54.717,10.018 54.458,9.859 54.175,9.859 L48.954,9.859 L48.954,7.385 C48.954,6.97 48.618,6.635 48.204,6.635 L39.069,6.635 C38.655,6.635 38.319,6.97 38.319,7.385 L38.319,7.57 L38.319,13.275 L38.319,21.737 L32.296,31.789 L24.941,44.05 L21.313,37.999 L17.513,31.659 C17.378,31.433 17.133,31.295 16.87,31.295 C16.606,31.295 16.362,31.433 16.226,31.659 L12.425,37.999 L0.306,58.229 C0.168,58.462 0.164,58.75 0.298,58.985 C0.43,59.219 0.679,59.365 0.95,59.365 L17.08,59.365 L61.05,59.365 C61.32,59.365 61.569,59.219 61.702,58.985 C61.836,58.75 61.832,58.461 61.693,58.229 z" fill="#000000" id="Fill-1"/>
  </g>
</svg>
