<?xml version="1.0" encoding="UTF-8"?>
<svg width="63px" height="59px" viewBox="0 0 63 59" version="1.1" xmlns="http://www.w3.org/2000/svg" xmlns:xlink="http://www.w3.org/1999/xlink">
    <!-- Generator: Sketch 50 (54983) - http://www.bohemiancoding.com/sketch -->
    <title>Group</title>
    <desc>Created with Sketch.</desc>
    <defs></defs>
    <g id="Page-1" stroke="none" stroke-width="1" fill="none" fill-rule="evenodd">
        <g id="DS_metod_sida" transform="translate(-706.000000, -643.000000)" fill="#000000">
            <g id="Group" transform="translate(706.373405, 643.000000)">
                <path d="M20.9297,24.6416 L12.6947,24.6416 C12.2807,24.6416 11.9447,24.9776 11.9447,25.3916 C11.9447,25.8056 12.2807,26.1416 12.6947,26.1416 L20.9297,26.1416 C21.3437,26.1416 21.6797,25.8056 21.6797,25.3916 C21.6797,24.9776 21.3437,24.6416 20.9297,24.6416" id="Fill-1"></path>
                <path d="M29,46.0303 L8.268,46.0303 C7.854,46.0303 7.518,46.3663 7.518,46.7803 C7.518,47.1943 7.854,47.5303 8.268,47.5303 L29,47.5303 C29.414,47.5303 29.75,47.1943 29.75,46.7803 C29.75,46.3663 29.414,46.0303 29,46.0303" id="Fill-3"></path>
                <path d="M24.4063,50.0303 L8.2673,50.0303 C7.8533,50.0303 7.5173,50.3663 7.5173,50.7803 C7.5173,51.1943 7.8533,51.5303 8.2673,51.5303 L24.4063,51.5303 C24.8203,51.5303 25.1563,51.1943 25.1563,50.7803 C25.1563,50.3663 24.8203,50.0303 24.4063,50.0303" id="Fill-5"></path>
                <path d="M12.6943,10.7422 L21.8783,10.7422 C22.2923,10.7422 22.6283,10.4062 22.6283,9.9922 C22.6283,9.5782 22.2923,9.2422 21.8783,9.2422 L12.6943,9.2422 C12.2803,9.2422 11.9443,9.5782 11.9443,9.9922 C11.9443,10.4062 12.2803,10.7422 12.6943,10.7422" id="Fill-7"></path>
                <path d="M25.6045,10.7422 L30.5575,10.7422 C30.9715,10.7422 31.3075,10.4062 31.3075,9.9922 C31.3075,9.5782 30.9715,9.2422 30.5575,9.2422 L25.6045,9.2422 C25.1905,9.2422 24.8545,9.5782 24.8545,9.9922 C24.8545,10.4062 25.1905,10.7422 25.6045,10.7422" id="Fill-9"></path>
                <path d="M33.5605,10.5234 C33.7015,10.6644 33.8905,10.7444 34.0905,10.7444 C34.2905,10.7444 34.4805,10.6644 34.6215,10.5234 C34.7605,10.3834 34.8405,10.1944 34.8405,9.9944 C34.8405,9.7944 34.7605,9.6034 34.6215,9.4634 C34.5505,9.3934 34.4705,9.3344 34.3805,9.3034 C34.1005,9.1834 33.7705,9.2534 33.5605,9.4634 C33.4205,9.6034 33.3405,9.7944 33.3405,9.9944 C33.3405,10.0934 33.3615,10.1834 33.4015,10.2734 C33.4305,10.3744 33.4915,10.4544 33.5605,10.5234" id="Fill-11"></path>
                <path d="M37.3701,26.8643 C34.2421,26.8643 31.6971,24.3193 31.6971,21.1913 C31.6971,18.0633 34.2421,15.5183 37.3701,15.5183 C40.4981,15.5183 43.0421,18.0633 43.0421,21.1913 C43.0421,24.3193 40.4981,26.8643 37.3701,26.8643 M37.3701,14.0183 C33.4151,14.0183 30.1971,17.2363 30.1971,21.1913 C30.1971,25.1463 33.4151,28.3643 37.3701,28.3643 C41.3241,28.3643 44.5421,25.1463 44.5421,21.1913 C44.5421,17.2363 41.3241,14.0183 37.3701,14.0183" id="Fill-13"></path>
                <path d="M59.0713,22.8437 L52.4973,22.8437 L52.4973,19.5387 L59.0713,19.5387 C59.9823,19.5387 60.7233,20.2807 60.7233,21.1917 C60.7233,22.1027 59.9823,22.8437 59.0713,22.8437 Z M47.5923,21.8197 C47.6053,21.6107 47.6253,21.4037 47.6253,21.1917 C47.6253,20.9797 47.6053,20.7727 47.5923,20.5637 L50.9973,20.5637 L50.9973,21.8197 L47.5923,21.8197 Z M37.3703,29.9467 C32.5423,29.9467 28.6143,26.0187 28.6143,21.1917 C28.6143,16.3637 32.5423,12.4357 37.3703,12.4357 C42.1973,12.4357 46.1253,16.3637 46.1253,21.1917 C46.1253,26.0187 42.1973,29.9467 37.3703,29.9467 Z M41.8403,33.0697 L17.1393,33.0697 C16.7253,33.0697 16.3893,33.4057 16.3893,33.8197 C16.3893,36.7087 14.0393,39.0597 11.1503,39.0597 C11.1413,39.0597 11.1333,39.0647 11.1253,39.0647 C11.1163,39.0647 11.1083,39.0597 11.0993,39.0597 C8.2383,39.0597 5.9103,36.7267 5.9103,33.8597 L5.9103,17.6897 C5.9103,17.6047 5.8873,17.5267 5.8613,17.4487 C5.8873,17.3727 5.9103,17.2947 5.9103,17.2097 L5.9103,17.0397 L5.9103,9.4897 L5.9103,1.4997 L41.8403,1.5097 L41.8403,11.9757 C40.4863,11.3167 38.9733,10.9357 37.3703,10.9357 C34.9193,10.9357 32.6673,11.8017 30.9013,13.2417 L12.6943,13.2417 C12.2803,13.2417 11.9443,13.5777 11.9443,13.9917 C11.9443,14.4057 12.2803,14.7417 12.6943,14.7417 L29.4063,14.7417 C28.9333,15.3247 28.5293,15.9637 28.1923,16.6417 L12.6943,16.6417 C12.2803,16.6417 11.9443,16.9777 11.9443,17.3917 C11.9443,17.8057 12.2803,18.1417 12.6943,18.1417 L27.5773,18.1417 C27.3293,18.9367 27.1883,19.7777 27.1423,20.6417 L12.6943,20.6417 C12.2803,20.6417 11.9443,20.9777 11.9443,21.3917 C11.9443,21.8057 12.2803,22.1417 12.6943,22.1417 L27.1623,22.1417 C27.6433,27.3517 32.0353,31.4467 37.3703,31.4467 C38.9733,31.4467 40.4863,31.0657 41.8403,30.4057 L41.8403,33.0697 Z M54.0173,34.6057 C53.6553,37.1207 51.4893,39.0597 48.8803,39.0597 L37.9103,39.0597 L32.4103,39.0597 L15.3843,39.0597 C16.7283,37.9707 17.6473,36.3767 17.8483,34.5697 L42.5903,34.5697 L47.3363,34.5697 L54.0173,34.6057 Z M37.1603,57.2497 L1.5003,57.2497 L1.5003,5.8797 L4.4103,5.8797 L4.4103,9.4897 L4.4103,17.0397 L4.4103,17.0497 L4.4103,17.2097 C4.4103,17.2947 4.4323,17.3727 4.4593,17.4487 C4.4323,17.5267 4.4103,17.6047 4.4103,17.6897 L4.4103,33.8597 C4.4103,37.5537 7.4113,40.5597 11.1503,40.5597 L32.4103,40.5597 L37.1603,40.5597 L37.1603,57.2497 Z M59.0713,18.0387 L51.7473,18.0387 C51.3333,18.0387 50.9973,18.3747 50.9973,18.7887 L50.9973,19.0637 L47.4003,19.0637 C46.8613,16.5247 45.3783,14.3357 43.3403,12.8687 L43.3403,0.7597 C43.3403,0.3457 43.0043,0.0097 42.5903,0.0097 L5.1603,-0.0003 C4.9613,-0.0003 4.7703,0.0787 4.6303,0.2197 C4.4893,0.3607 4.4103,0.5507 4.4103,0.7497 L4.4103,4.3797 L0.7503,4.3797 C0.3363,4.3797 0.0003,4.7157 0.0003,5.1297 L0.0003,57.9997 C0.0003,58.4137 0.3363,58.7497 0.7503,58.7497 L37.9103,58.7497 C38.3243,58.7497 38.6603,58.4137 38.6603,57.9997 L38.6603,40.5597 L48.8803,40.5597 C52.5693,40.5597 55.5703,37.5537 55.5703,33.8597 C55.5703,33.4467 55.2373,33.1117 54.8243,33.1097 L47.3403,33.0697 L43.3403,33.0697 L43.3403,29.5127 C45.3783,28.0457 46.8613,25.8587 47.3993,23.3197 L50.9973,23.3197 L50.9973,23.5937 C50.9973,24.0077 51.3333,24.3437 51.7473,24.3437 L59.0713,24.3437 C60.8093,24.3437 62.2233,22.9297 62.2233,21.1917 C62.2233,19.4527 60.8093,18.0387 59.0713,18.0387 Z" id="Fill-15"></path>
                <path d="M34.3613,21.1914 C34.3613,20.8084 34.4323,20.4344 34.5743,20.0804 C34.7263,19.6954 34.5393,19.2584 34.1543,19.1054 C33.7713,18.9544 33.3343,19.1394 33.1793,19.5254 C32.9683,20.0574 32.8613,20.6184 32.8613,21.1914 C32.8613,22.1684 33.1693,23.0964 33.7503,23.8784 C33.8963,24.0764 34.1233,24.1804 34.3523,24.1804 C34.5073,24.1804 34.6653,24.1324 34.7983,24.0324 C35.1323,23.7854 35.2003,23.3154 34.9533,22.9834 C34.5663,22.4624 34.3613,21.8424 34.3613,21.1914" id="Fill-18"></path>
            </g>
        </g>
    </g>
</svg>