<?xml version="1.0" encoding="UTF-8"?>
<svg width="60px" height="61px" viewBox="0 0 60 61" version="1.1" xmlns="http://www.w3.org/2000/svg" xmlns:xlink="http://www.w3.org/1999/xlink">
    <!-- Generator: Sketch 50 (54983) - http://www.bohemiancoding.com/sketch -->
    <title>Page 1</title>
    <desc>Created with Sketch.</desc>
    <defs>
        <polygon id="path-1" points="0 0.486 58.9351788 0.486 58.9351788 60.2636112 0 60.2636112"></polygon>
    </defs>
    <g id="Page-1" stroke="none" stroke-width="1" fill="none" fill-rule="evenodd">
        <g id="DS_Resurser" transform="translate(-700.000000, -261.000000)">
            <g id="Page-1" transform="translate(700.854000, 260.457931)">
                <g id="Group-3" transform="translate(0.000000, 0.486000)">
                    <mask id="mask-2" fill="white">
                        <use xlink:href="#path-1"></use>
                    </mask>
                    <g id="Clip-2"></g>
                    <path d="M55.9744668,16.5012552 L11.7280548,16.5012552 C9.9735948,16.5012552 8.3279988,15.9102792 7.0964748,14.8371912 C5.8921668,13.7884032 5.2292628,12.4023312 5.2292628,10.9346112 C5.2292628,9.4678632 5.8921668,8.0817912 7.0955028,7.0339752 C8.3279988,5.9599152 9.9735948,5.3689392 11.7280548,5.3689392 L55.9744668,5.3689392 C54.0149148,8.8020432 54.0149148,13.0681512 55.9744668,16.5012552 Z M55.9744668,35.9412552 L11.7280548,35.9412552 C9.9735948,35.9412552 8.3279988,35.3502792 7.0964748,34.2771912 C5.8921668,33.2284032 5.2292628,31.8423312 5.2292628,30.3746112 C5.2292628,28.9078632 5.8921668,27.5217912 7.0955028,26.4739752 C8.3279988,25.3999152 9.9735948,24.8089392 11.7280548,24.8089392 L55.9744668,24.8089392 C54.0149148,28.2420432 54.0149148,32.5081512 55.9744668,35.9412552 Z M55.9744668,55.3812552 L11.7280548,55.3812552 C9.9735948,55.3812552 8.3279988,54.7902792 7.0964748,53.7171912 C5.8921668,52.6684032 5.2292628,51.2823312 5.2292628,49.8146112 C5.2292628,48.3478632 5.8921668,46.9617912 7.0955028,45.9139752 C8.3279988,44.8399152 9.9735948,44.2489392 11.7280548,44.2489392 L55.9744668,44.2489392 C54.0149148,47.6820432 54.0149148,51.9481512 55.9744668,55.3812552 Z M57.4771788,58.8056112 L10.4489028,58.8056112 C5.4907308,58.8056112 1.4579028,54.7727832 1.4579028,49.8146112 C1.4579028,44.8574112 5.4907308,40.8236112 10.4489028,40.8236112 L57.4771788,40.8236112 L57.4771788,42.7909392 L11.7280548,42.7909392 C9.6217308,42.7909392 7.6369068,43.5092472 6.1390548,44.8146432 C4.6120428,46.1433672 3.7712628,47.9192112 3.7712628,49.8146112 C3.7712628,51.7100112 4.6120428,53.4868272 6.1390548,54.8165232 C7.6369068,56.1209472 9.6217308,56.8392552 11.7280548,56.8392552 L57.4771788,56.8392552 L57.4771788,58.8056112 Z M1.4579028,30.3746112 C1.4579028,25.4174112 5.4907308,21.3836112 10.4489028,21.3836112 L57.4771788,21.3836112 L57.4771788,23.3509392 L11.7280548,23.3509392 C9.6217308,23.3509392 7.6369068,24.0692472 6.1390548,25.3746432 C4.6120428,26.7033672 3.7712628,28.4792112 3.7712628,30.3746112 C3.7712628,32.2700112 4.6120428,34.0468272 6.1390548,35.3765232 C7.6369068,36.6809472 9.6217308,37.3992552 11.7280548,37.3992552 L57.4771788,37.3992552 L57.4771788,39.3656112 L10.4489028,39.3656112 C5.4907308,39.3656112 1.4579028,35.3327832 1.4579028,30.3746112 Z M1.4579028,10.9346112 C1.4579028,5.9774112 5.4907308,1.9436112 10.4489028,1.9436112 L57.4771788,1.9436112 L57.4771788,3.9109392 L11.7280548,3.9109392 C9.6217308,3.9109392 7.6369068,4.6292472 6.1390548,5.9346432 C4.6120428,7.2633672 3.7712628,9.0392112 3.7712628,10.9346112 C3.7712628,12.8300112 4.6120428,14.6068272 6.1390548,15.9365232 C7.6369068,17.2409472 9.6217308,17.9592552 11.7280548,17.9592552 L57.4771788,17.9592552 L57.4771788,19.9256112 L10.4489028,19.9256112 C5.4907308,19.9256112 1.4579028,15.8927832 1.4579028,10.9346112 Z M57.6958788,5.3689392 L58.2061788,5.3689392 C58.6085868,5.3689392 58.9351788,5.0423472 58.9351788,4.6399392 L58.9351788,1.2146112 C58.9351788,0.8122032 58.6085868,0.4856112 58.2061788,0.4856112 L10.4489028,0.4856112 C4.6868868,0.4856112 -9.72e-05,5.1735672 -9.72e-05,10.9346112 C-9.72e-05,15.3513792 2.7584388,19.1285712 6.6406068,20.6546112 C2.7584388,22.1816232 -9.72e-05,25.9578432 -9.72e-05,30.3746112 C-9.72e-05,34.7913792 2.7584388,38.5685712 6.6406068,40.0946112 C2.7584388,41.6216232 -9.72e-05,45.3978432 -9.72e-05,49.8146112 C-9.72e-05,55.5766272 4.6868868,60.2636112 10.4489028,60.2636112 L58.2061788,60.2636112 C58.6085868,60.2636112 58.9351788,59.9379912 58.9351788,59.5346112 L58.9351788,56.1102552 C58.9351788,55.7078472 58.6085868,55.3812552 58.2061788,55.3812552 L57.6958788,55.3812552 C55.3815468,52.0521552 55.3815468,47.5780392 57.6958788,44.2489392 L58.2061788,44.2489392 C58.6085868,44.2489392 58.9351788,43.9223472 58.9351788,43.5199392 L58.9351788,40.0946112 L58.9351788,36.6702552 C58.9351788,36.2678472 58.6085868,35.9412552 58.2061788,35.9412552 L57.6958788,35.9412552 C55.3815468,32.6121552 55.3815468,28.1380392 57.6958788,24.8089392 L58.2061788,24.8089392 C58.6085868,24.8089392 58.9351788,24.4823472 58.9351788,24.0799392 L58.9351788,20.6546112 L58.9351788,17.2302552 C58.9351788,16.8278472 58.6085868,16.5012552 58.2061788,16.5012552 L57.6958788,16.5012552 C55.3815468,13.1721552 55.3815468,8.6980392 57.6958788,5.3689392 Z" id="Fill-1" fill="#FFFFFF" mask="url(#mask-2)"></path>
                </g>
                <path d="M34.2972144,8.748 L19.1699784,8.748 C18.7675704,8.748 18.4419504,9.074592 18.4419504,9.477 C18.4419504,9.879408 18.7675704,10.206 19.1699784,10.206 L34.2972144,10.206 C34.6996224,10.206 35.0262144,9.879408 35.0262144,9.477 C35.0262144,9.074592 34.6996224,8.748 34.2972144,8.748" id="Fill-4" fill="#FFFFFF"></path>
                <path d="M42.8002704,8.748 L38.1852144,8.748 C37.7828064,8.748 37.4562144,9.074592 37.4562144,9.477 C37.4562144,9.879408 37.7828064,10.206 38.1852144,10.206 L42.8002704,10.206 C43.2026784,10.206 43.5292704,9.879408 43.5292704,9.477 C43.5292704,9.074592 43.2026784,8.748 42.8002704,8.748" id="Fill-6" fill="#FFFFFF"></path>
                <path d="M46.9635408,8.7992244 C46.7876088,8.7311844 46.5834888,8.7311844 46.4095008,8.7992244 C46.3220208,8.8381044 46.2345408,8.8964244 46.1752488,8.9644644 C46.0401408,9.0908244 45.9623808,9.2852244 45.9623808,9.4796244 C45.9623808,9.6730524 46.0401408,9.8587044 46.1752488,9.9938124 C46.3123008,10.1308644 46.4969808,10.1979324 46.6913808,10.1979324 C46.8857808,10.1979324 47.0607408,10.1308644 47.1968208,9.9938124 C47.3426208,9.8587044 47.4203808,9.6730524 47.4203808,9.4796244 C47.4203808,9.2852244 47.3426208,9.0908244 47.1968208,8.9644644 C47.1385008,8.8964244 47.0510208,8.8381044 46.9635408,8.7992244" id="Fill-8" fill="#FFFFFF"></path>
                <path d="M24.5496096,12.636 L15.4040616,12.636 C15.0016536,12.636 14.6750616,12.962592 14.6750616,13.365 C14.6750616,13.767408 15.0016536,14.094 15.4040616,14.094 L24.5496096,14.094 C24.9520176,14.094 25.2786096,13.767408 25.2786096,13.365 C25.2786096,12.962592 24.9520176,12.636 24.5496096,12.636" id="Fill-10" fill="#FFFFFF"></path>
                <path d="M33.331824,12.636 L28.437804,12.636 C28.035396,12.636 27.708804,12.962592 27.708804,13.365 C27.708804,13.767408 28.035396,14.094 28.437804,14.094 L33.331824,14.094 C33.734232,14.094 34.060824,13.767408 34.060824,13.365 C34.060824,12.962592 33.734232,12.636 33.331824,12.636" id="Fill-12" fill="#FFFFFF"></path>
                <path d="M38.2971888,12.636 L37.2202128,12.636 C36.8178048,12.636 36.4912128,12.962592 36.4912128,13.365 C36.4912128,13.767408 36.8178048,14.094 37.2202128,14.094 L38.2971888,14.094 C38.6995968,14.094 39.0261888,13.767408 39.0261888,13.365 C39.0261888,12.962592 38.6995968,12.636 38.2971888,12.636" id="Fill-14" fill="#FFFFFF"></path>
                <path d="M42.463278,12.6872244 C42.287346,12.6191844 42.083226,12.6191844 41.909238,12.6872244 C41.812038,12.7261044 41.734278,12.7844244 41.674986,12.8524644 C41.597226,12.9205044 41.549598,12.9972924 41.510718,13.0857444 C41.470866,13.1732244 41.452398,13.2704244 41.452398,13.3676244 C41.452398,13.5610524 41.530158,13.7467044 41.674986,13.8818124 C41.743998,13.9508244 41.821758,13.9994244 41.909238,14.0383044 C41.996718,14.0771844 42.083226,14.0966244 42.181398,14.0966244 C42.278598,14.0966244 42.375798,14.0771844 42.463278,14.0383044 C42.550758,13.9994244 42.628518,13.9508244 42.695586,13.8818124 C42.842358,13.7467044 42.910398,13.5610524 42.910398,13.3676244 C42.910398,13.1732244 42.832638,12.9885444 42.695586,12.8524644 C42.638238,12.7844244 42.550758,12.7261044 42.463278,12.6872244" id="Fill-16" fill="#FFFFFF"></path>
                <path d="M19.1704644,29.646 L34.2977004,29.646 C34.7001084,29.646 35.0257284,29.319408 35.0257284,28.917 C35.0257284,28.514592 34.7001084,28.188 34.2977004,28.188 L19.1704644,28.188 C18.7680564,28.188 18.4414644,28.514592 18.4414644,28.917 C18.4414644,29.319408 18.7680564,29.646 19.1704644,29.646" id="Fill-18" fill="#FFFFFF"></path>
                <path d="M38.1852144,29.646 L42.8002704,29.646 C43.2026784,29.646 43.5292704,29.319408 43.5292704,28.917 C43.5292704,28.514592 43.2026784,28.188 42.8002704,28.188 L38.1852144,28.188 C37.7828064,28.188 37.4562144,28.514592 37.4562144,28.917 C37.4562144,29.319408 37.7828064,29.646 38.1852144,29.646" id="Fill-20" fill="#FFFFFF"></path>
                <path d="M46.6910892,29.6488188 C46.8854892,29.6488188 47.0604492,29.5710588 47.2062492,29.4340068 C47.3423292,29.2891788 47.4200892,29.1132468 47.4200892,28.9198188 C47.4200892,28.8216468 47.4006492,28.7254188 47.3617692,28.6379388 C47.3228892,28.5494868 47.2742892,28.4726988 47.2062492,28.4046588 C46.9340892,28.1315268 46.4383692,28.1315268 46.1759292,28.4046588 C46.1078892,28.4726988 46.0495692,28.5494868 46.0106892,28.6379388 C45.9718092,28.7254188 45.9620892,28.8216468 45.9620892,28.9198188 C45.9620892,29.1132468 46.0301292,29.2891788 46.1759292,29.4340068 C46.3120092,29.5710588 46.4966892,29.6488188 46.6910892,29.6488188" id="Fill-22" fill="#FFFFFF"></path>
                <path d="M33.2254872,32.076 L24.0809112,32.076 C23.6785032,32.076 23.3519112,32.402592 23.3519112,32.805 C23.3519112,33.207408 23.6785032,33.534 24.0809112,33.534 L33.2254872,33.534 C33.6278952,33.534 33.9544872,33.207408 33.9544872,32.805 C33.9544872,32.402592 33.6278952,32.076 33.2254872,32.076" id="Fill-24" fill="#FFFFFF"></path>
                <path d="M15.2976276,33.534 L20.1926196,33.534 C20.5950276,33.534 20.9216196,33.207408 20.9216196,32.805 C20.9216196,32.402592 20.5950276,32.076 20.1926196,32.076 L15.2976276,32.076 C14.8952196,32.076 14.5686276,32.402592 14.5686276,32.805 C14.5686276,33.207408 14.8952196,33.534 15.2976276,33.534" id="Fill-26" fill="#FFFFFF"></path>
                <path d="M37.1134872,33.534 L38.1914352,33.534 C38.5938432,33.534 38.9204352,33.207408 38.9204352,32.805 C38.9204352,32.402592 38.5938432,32.076 38.1914352,32.076 L37.1134872,32.076 C36.7110792,32.076 36.3844872,32.402592 36.3844872,32.805 C36.3844872,33.207408 36.7110792,33.534 37.1134872,33.534" id="Fill-28" fill="#FFFFFF"></path>
                <path d="M42.5895408,32.2924644 C42.5302488,32.2244244 42.4437408,32.1661044 42.3562608,32.1272244 C42.0831288,32.0203044 41.7623688,32.0883444 41.5689408,32.2924644 C41.5009008,32.3605044 41.4416088,32.4372924 41.4037008,32.5257444 C41.3648208,32.6132244 41.3453808,32.7104244 41.3453808,32.8076244 C41.3453808,33.0010524 41.4231408,33.1769844 41.5689408,33.3227844 C41.6369808,33.3908244 41.7147408,33.4394244 41.8012488,33.4783044 C41.8897008,33.5171844 41.9869008,33.5366244 42.0831288,33.5366244 C42.1706088,33.5366244 42.2687808,33.5171844 42.3562608,33.4783044 C42.4437408,33.4394244 42.5215008,33.3908244 42.5895408,33.3227844 C42.7343688,33.1769844 42.8121288,33.0010524 42.8121288,32.8076244 C42.8121288,32.7104244 42.7936608,32.6132244 42.7547808,32.5257444 C42.7159008,32.4372924 42.6566088,32.3605044 42.5895408,32.2924644" id="Fill-30" fill="#FFFFFF"></path>
                <path d="M38.1852144,49.0290408 L42.8002704,49.0290408 C43.2026784,49.0290408 43.5292704,48.7024488 43.5292704,48.3000408 C43.5292704,47.8976328 43.2026784,47.5710408 42.8002704,47.5710408 L38.1852144,47.5710408 C37.7828064,47.5710408 37.4562144,47.8976328 37.4562144,48.3000408 C37.4562144,48.7024488 37.7828064,49.0290408 38.1852144,49.0290408" id="Fill-32" fill="#FFFFFF"></path>
                <path d="M46.1757348,48.8164644 C46.3127868,48.9525444 46.4964948,49.0303044 46.6908948,49.0303044 C46.8852948,49.0303044 47.0602548,48.9525444 47.2070268,48.8164644 C47.2740948,48.7484244 47.3236668,48.6706644 47.3625468,48.5734644 C47.4014268,48.4859844 47.4198948,48.3985044 47.4198948,48.3013044 C47.4198948,48.2041044 47.4014268,48.1069044 47.3625468,48.0194244 C47.3236668,47.9319444 47.2740948,47.8541844 47.2070268,47.7851724 C47.1380148,47.7181044 47.0505348,47.6597844 46.9640268,47.6209044 C46.7006148,47.5139844 46.3798548,47.5810524 46.1757348,47.7851724 C46.0396548,47.9222244 45.9618948,48.1069044 45.9618948,48.3013044 C45.9618948,48.3985044 45.9716148,48.4859844 46.0104948,48.5734644 C46.0493748,48.6609444 46.0979748,48.7484244 46.1757348,48.8164644" id="Fill-34" fill="#FFFFFF"></path>
                <path d="M25.151472,49.0290408 L34.29702,49.0290408 C34.699428,49.0290408 35.02602,48.7024488 35.02602,48.3000408 C35.02602,47.8976328 34.699428,47.5710408 34.29702,47.5710408 L25.151472,47.5710408 C24.749064,47.5710408 24.422472,47.8976328 24.422472,48.3000408 C24.422472,48.7024488 24.749064,49.0290408 25.151472,49.0290408" id="Fill-36" fill="#FFFFFF"></path>
                <path d="M30.1178088,51.4590408 C29.7154008,51.4590408 29.3888088,51.7856328 29.3888088,52.1880408 C29.3888088,52.5904488 29.7154008,52.9170408 30.1178088,52.9170408 L34.7318928,52.9170408 C35.1343008,52.9170408 35.4608928,52.5904488 35.4608928,52.1880408 C35.4608928,51.7856328 35.1343008,51.4590408 34.7318928,51.4590408 L30.1178088,51.4590408 Z" id="Fill-38" fill="#FFFFFF"></path>
                <path d="M39.6982296,51.4590408 L38.6202816,51.4590408 C38.2178736,51.4590408 37.8912816,51.7856328 37.8912816,52.1880408 C37.8912816,52.5904488 38.2178736,52.9170408 38.6202816,52.9170408 L39.6982296,52.9170408 C40.1006376,52.9170408 40.4272296,52.5904488 40.4272296,52.1880408 C40.4272296,51.7856328 40.1006376,51.4590408 39.6982296,51.4590408" id="Fill-40" fill="#FFFFFF"></path>
                <path d="M25.151472,52.9170408 L26.22942,52.9170408 C26.631828,52.9170408 26.95842,52.5904488 26.95842,52.1880408 C26.95842,51.7856328 26.631828,51.4590408 26.22942,51.4590408 L25.151472,51.4590408 C24.749064,51.4590408 24.422472,51.7856328 24.422472,52.1880408 C24.422472,52.5904488 24.749064,52.9170408 25.151472,52.9170408" id="Fill-42" fill="#FFFFFF"></path>
                <path d="M42.910398,51.9070356 C42.871518,51.9945156 42.851106,52.0917156 42.851106,52.1889156 C42.851106,52.2870876 42.871518,52.3735956 42.910398,52.4610756 C42.949278,52.5582756 42.997878,52.6360356 43.065918,52.7040756 C43.211718,52.8401556 43.385706,52.9179156 43.590798,52.9179156 C43.678278,52.9179156 43.775478,52.8994476 43.861986,52.8595956 C43.949466,52.8207156 44.027226,52.7730876 44.104986,52.7040756 C44.173998,52.6360356 44.222598,52.5582756 44.261478,52.4610756 C44.300358,52.3735956 44.319798,52.2870876 44.319798,52.1889156 C44.319798,52.0917156 44.300358,51.9945156 44.261478,51.9070356 C44.222598,51.8195556 44.173998,51.7417956 44.104986,51.6737556 C43.833798,51.4015956 43.337106,51.4015956 43.065918,51.6737556 C42.997878,51.7417956 42.949278,51.8195556 42.910398,51.9070356" id="Fill-44" fill="#FFFFFF"></path>
                <path d="M46.798398,51.9070356 C46.759518,51.9945156 46.739106,52.0917156 46.739106,52.1889156 C46.739106,52.3833156 46.817838,52.5582756 46.953918,52.7040756 C47.099718,52.8401556 47.273706,52.9179156 47.478798,52.9179156 C47.566278,52.9179156 47.663478,52.8994476 47.749986,52.8595956 C47.837466,52.8207156 47.915226,52.7730876 47.992986,52.7040756 C48.061998,52.6360356 48.110598,52.5582756 48.149478,52.4610756 C48.188358,52.3735956 48.207798,52.2870876 48.207798,52.1889156 C48.207798,52.0917156 48.188358,51.9945156 48.149478,51.9070356 C48.110598,51.8195556 48.061998,51.7417956 47.992986,51.6737556 C47.925918,51.6057156 47.837466,51.5473956 47.749986,51.5192076 C47.478798,51.4015956 47.158038,51.4696356 46.953918,51.6737556 C46.885878,51.7417956 46.837278,51.8195556 46.798398,51.9070356" id="Fill-46" fill="#FFFFFF"></path>
                <path d="M15.9507144,48.6 L20.3247144,48.6 L20.3247144,51.173856 L18.6042744,49.741128 C18.4691664,49.628376 18.3039264,49.572 18.1377144,49.572 C17.9715024,49.572 17.8062624,49.628376 17.6711544,49.741128 L15.9507144,51.173856 L15.9507144,48.6 Z M14.9126184,53.390988 C15.1672824,53.510544 15.4705464,53.472636 15.6882744,53.290872 L18.1377144,51.250644 L20.5871544,53.290872 C20.7203184,53.40168 20.8865304,53.46 21.0537144,53.46 C21.1586904,53.46 21.2646384,53.437644 21.3628104,53.390988 C21.6194184,53.271432 21.7827144,53.013852 21.7827144,52.731 L21.7827144,47.871 C21.7827144,47.468592 21.4561224,47.142 21.0537144,47.142 L15.2217144,47.142 C14.8193064,47.142 14.4927144,47.468592 14.4927144,47.871 L14.4927144,52.731 C14.4927144,53.013852 14.6560104,53.271432 14.9126184,53.390988 Z" id="Fill-48" fill="#FFFFFF"></path>
            </g>
        </g>
    </g>
</svg>